<?xml version="1.0" encoding="UTF-8"?>
<svg version="1.1" xmlns="http://www.w3.org/2000/svg" width="552" height="552">
<path d="M0 0 C1.49506828 -0.00855011 1.49506828 -0.00855011 3.02033997 -0.01727295 C5.12381958 -0.02666591 7.22731353 -0.03323404 9.33081055 -0.03710938 C12.46626386 -0.04671187 15.60103092 -0.07774776 18.73632812 -0.109375 C36.73014481 -0.20401174 54.45649862 1.47143809 72.01953125 5.515625 C72.95974121 5.72727295 73.89995117 5.9389209 74.86865234 6.15698242 C121.22377159 16.86720454 164.52816994 38.5709332 199.33203125 71.203125 C200.68077591 72.37605565 202.03456042 73.5432294 203.39453125 74.703125 C210.98037715 81.32912917 217.77992731 88.4934111 224.0546875 96.3671875 C226.39842967 99.28580982 228.83017159 102.11418224 231.26953125 104.953125 C240.57286477 116.11424493 248.09343188 128.63504416 255.33203125 141.203125 C255.98816406 142.33621094 256.64429688 143.46929687 257.3203125 144.63671875 C277.07335676 179.69232143 289.34998742 222.51723393 289.53515625 262.87109375 C289.54085632 263.86780594 289.5465564 264.86451813 289.5524292 265.89143372 C289.56182216 267.99491333 289.56839029 270.09840728 289.57226562 272.2019043 C289.58186812 275.33735761 289.61290401 278.47212467 289.64453125 281.60742188 C289.73916799 299.60123856 288.06371816 317.32759237 284.01953125 334.890625 C283.8078833 335.83083496 283.59623535 336.77104492 283.37817383 337.73974609 C272.66795171 384.09486534 250.96422305 427.39926369 218.33203125 462.203125 C217.1591006 463.55186966 215.99192685 464.90565417 214.83203125 466.265625 C208.20602708 473.8514709 201.04174515 480.65102106 193.16796875 486.92578125 C190.24934643 489.26952342 187.42097401 491.70126534 184.58203125 494.140625 C173.42091132 503.44395852 160.90011209 510.96452563 148.33203125 518.203125 C147.19894531 518.85925781 146.06585938 519.51539063 144.8984375 520.19140625 C109.84283482 539.94445051 67.01792232 552.22108117 26.6640625 552.40625 C25.66735031 552.41195007 24.67063812 552.41765015 23.64372253 552.42352295 C21.54024292 552.43291591 19.43674897 552.43948404 17.33325195 552.44335938 C14.19779864 552.45296187 11.06303158 552.48399776 7.92773438 552.515625 C-10.06608231 552.61026174 -27.79243612 550.93481191 -45.35546875 546.890625 C-46.29567871 546.67897705 -47.23588867 546.4673291 -48.20458984 546.24926758 C-94.55970909 535.53904546 -137.86410744 513.8353168 -172.66796875 481.203125 C-174.01671341 480.03019435 -175.37049792 478.8630206 -176.73046875 477.703125 C-184.31631465 471.07712083 -191.11586481 463.9128389 -197.390625 456.0390625 C-199.73436717 453.12044018 -202.16610909 450.29206776 -204.60546875 447.453125 C-213.90880227 436.29200507 -221.42936938 423.77120584 -228.66796875 411.203125 C-229.32410156 410.07003906 -229.98023438 408.93695313 -230.65625 407.76953125 C-250.40929426 372.71392857 -262.68592492 329.88901607 -262.87109375 289.53515625 C-262.87964386 288.04008797 -262.87964386 288.04008797 -262.8883667 286.51481628 C-262.89775966 284.41133667 -262.90432779 282.30784272 -262.90820312 280.2043457 C-262.91780562 277.06889239 -262.94884151 273.93412533 -262.98046875 270.79882812 C-263.07510549 252.80501144 -261.39965566 235.07865763 -257.35546875 217.515625 C-257.03799683 216.10531006 -257.03799683 216.10531006 -256.71411133 214.66650391 C-246.00388921 168.31138466 -224.30016055 125.00698631 -191.66796875 90.203125 C-190.4950381 88.85438034 -189.32786435 87.50059583 -188.16796875 86.140625 C-181.54196458 78.5547791 -174.37768265 71.75522894 -166.50390625 65.48046875 C-163.58528393 63.13672658 -160.75691151 60.70498466 -157.91796875 58.265625 C-146.75684882 48.96229148 -134.23604959 41.44172437 -121.66796875 34.203125 C-120.53488281 33.54699219 -119.40179688 32.89085937 -118.234375 32.21484375 C-83.17877232 12.46179949 -40.35385982 0.18516883 0 0 Z " fill="#FEFEFE" transform="translate(262.66796875,-0.203125)"/>
<path d="M0 0 C11.34715102 8.62596904 19.61662721 18.80590652 26.4921875 31.20703125 C27.21535156 32.48707031 27.21535156 32.48707031 27.953125 33.79296875 C41.81852769 59.75908651 43.78197493 96.83108184 36.4921875 125.20703125 C36.26112305 126.11291992 36.03005859 127.01880859 35.79199219 127.95214844 C24.55255549 170.88821041 3.23253841 207.52997704 -26.09716797 240.60766602 C-27.10427771 241.74951024 -28.10233748 242.89936281 -29.09423828 244.05444336 C-33.61062356 249.29642244 -38.36355032 254.25496005 -43.2578125 259.14453125 C-44.04913574 259.93577393 -44.84045898 260.7270166 -45.65576172 261.54223633 C-50.5531051 266.39207638 -55.49592739 270.97057457 -60.953125 275.1875 C-63.14346085 276.91900403 -65.22449012 278.70730296 -67.3125 280.55859375 C-71.24693114 284.02271371 -75.32553846 287.23683037 -79.5078125 290.39453125 C-80.24273926 290.95205078 -80.97766602 291.50957031 -81.73486328 292.08398438 C-83.25352285 293.2349274 -84.77321558 294.38450849 -86.29394531 295.53271484 C-88.36778077 297.10112724 -90.43469752 298.67819088 -92.5 300.2578125 C-130.48978417 329.19786178 -176.33298878 361.8231904 -226.5078125 357.20703125 C-236.2452319 355.83874449 -245.98072026 351.22308318 -252.60546875 343.8828125 C-262.22171006 330.87740759 -263.81862039 316.92808319 -262.5078125 301.20703125 C-259.01071224 278.94260625 -246.70497926 254.64148946 -231.5078125 238.20703125 C-230.78980469 237.40910156 -230.07179688 236.61117188 -229.33203125 235.7890625 C-218.97313219 224.80458162 -206.03789985 217.84622586 -190.84375 217.00390625 C-178.37947055 216.85639998 -167.91294086 217.77626188 -158.1328125 226.26953125 C-155.17644394 231.61373596 -155.76451338 237.20460391 -157.203125 243.015625 C-163.7513016 262.41253468 -180.26981097 279.73858104 -195.78125 292.67578125 C-198.36755295 294.969516 -200.56497061 297.54637146 -202.79296875 300.18359375 C-203.92022653 301.51370657 -205.0736069 302.82219027 -206.25390625 304.10546875 C-211.08338029 309.37594153 -214.83950553 315.08370747 -218.5078125 321.20703125 C-219.1471875 322.19703125 -219.7865625 323.18703125 -220.4453125 324.20703125 C-222.09388621 328.8618276 -222.17683819 333.33057734 -221.5078125 338.20703125 C-219.18929102 342.41471838 -216.95672522 343.7068165 -212.5078125 345.20703125 C-190.21504008 348.45023704 -168.52753351 332.34157236 -151.6640625 319.82958984 C-146.39233166 315.86266014 -141.18917485 311.80947169 -136.00390625 307.73046875 C-131.56185297 304.23745663 -127.069571 300.81332446 -122.5703125 297.39453125 C-113.35123315 290.36452413 -104.40314066 283.13010528 -95.83203125 275.3125 C-93.79507325 273.4672557 -91.72510403 271.67621455 -89.6328125 269.89453125 C-82.09695992 263.32167809 -74.94759345 256.12831032 -68.46875 248.51171875 C-66.84555861 246.60398384 -65.20299168 244.71883969 -63.546875 242.83984375 C-37.52300072 213.24202406 -18.13619254 181.10408228 -17.9453125 140.70703125 C-17.93673218 140.03951843 -17.92815186 139.37200562 -17.91931152 138.68426514 C-17.79159137 124.56597473 -20.40291624 111.36006369 -29.5078125 100.20703125 C-37.3211482 92.42618343 -47.99662381 89.10965671 -58.8203125 88.95703125 C-79.42396112 89.17142926 -98.62768271 96.48073535 -116.5078125 106.20703125 C-117.17554688 106.56700195 -117.84328125 106.92697266 -118.53125 107.29785156 C-134.18241182 115.77556422 -148.83909511 125.73646572 -163.61865234 135.62182617 C-169.35832264 139.4585583 -175.11039286 143.26597626 -180.9453125 146.95703125 C-199.76273451 158.96366992 -217.70553057 172.4084232 -235.3828125 186.01953125 C-258.34612052 203.633134 -282.21181144 219.7429135 -312.5078125 217.20703125 C-326.24514599 214.84392518 -337.73383904 208.06416138 -346.5078125 197.20703125 C-348.47552019 193.97883599 -350.06816745 190.6991823 -351.5078125 187.20703125 C-351.85972656 186.4078125 -352.21164062 185.60859375 -352.57421875 184.78515625 C-359.67675137 165.17146785 -352.77484433 142.26506795 -344.5078125 124.20703125 C-340.17448877 115.52733162 -333.97300683 107.89161405 -328.06518555 100.23925781 C-327.03008081 98.88854268 -326.01048021 97.52579848 -325.00708008 96.15136719 C-320.14076409 89.61148973 -314.52110405 83.94896005 -308.73803711 78.23144531 C-307.0715005 76.5832062 -305.41314749 74.92706427 -303.75585938 73.26953125 C-298.18010164 67.71180017 -292.55659971 62.25396454 -286.5078125 57.20703125 C-285.93780518 56.73023926 -285.36779785 56.25344727 -284.78051758 55.76220703 C-235.32891682 14.89885932 -175.77334795 -15.20542519 -112.5078125 -26.79296875 C-111.55100586 -26.97182617 -110.59419922 -27.15068359 -109.60839844 -27.33496094 C-71.49515695 -32.96491692 -31.08854647 -22.22685799 0 0 Z " fill="#E20011" transform="translate(430.5078125,112.79296875)"/>
<path d="M0 0 C0.33 0.66 0.66 1.32 1 2 C-0.3125 4.625 -0.3125 4.625 -2 7 C-2.66 7 -3.32 7 -4 7 C-3.67 8.65 -3.34 10.3 -3 12 C-4.32 12 -5.64 12 -7 12 C-6.505 12.99 -6.505 12.99 -6 14 C-5.236875 14.0825 -4.47375 14.165 -3.6875 14.25 C-1 15 -1 15 1.375 17.8125 C3 21 3 21 2.91796875 22.9453125 C1.57697746 25.94685045 -0.40479665 27.14881051 -3.0625 29.0625 C-3.86216187 29.64112793 -3.86216187 29.64112793 -4.67797852 30.23144531 C-6.44321046 31.50045066 -8.22067025 32.75085536 -10 34 C-10.59264648 34.42200684 -11.18529297 34.84401367 -11.79589844 35.27880859 C-46.3589372 59.8621174 -85.03052328 83.45665107 -129 80 C-130.67169769 79.69289134 -132.34036594 79.36674742 -134 79 C-134 78.67 -134 78.34 -134 78 C-124.43 78 -114.86 78 -105 78 C-105 76.02 -105 74.04 -105 72 C-108.96 71.67 -112.92 71.34 -117 71 C-117 70.34 -117 69.68 -117 69 C-118.670625 68.5359375 -118.670625 68.5359375 -120.375 68.0625 C-124 67 -124 67 -126 66 C-126.3690205 48.14350797 -126.3690205 48.14350797 -124 40 C-122.68 40 -121.36 40 -120 40 C-121.79037935 45.62690653 -121.79037935 45.62690653 -123.046875 47.86328125 C-124.89898204 52.01534088 -124.53373448 56.55880196 -124 61 C-121.68147852 65.20768713 -119.44891272 66.49978525 -115 68 C-92.70722758 71.24320579 -71.01972101 55.13454111 -54.15625 42.62255859 C-48.88451916 38.65562889 -43.68136235 34.60244044 -38.49609375 30.5234375 C-34.05404638 27.03043003 -29.56198789 23.60598454 -25.0625 20.1875 C-18.59113506 15.2590848 -12.24446628 10.21456299 -6 5 C-5.34 4.45214844 -4.68 3.90429688 -4 3.33984375 C-2.66407916 2.22966879 -1.33144694 1.11553663 0 0 Z " fill="#E00312" transform="translate(333,390)"/>
<path d="M0 0 C1.32 0 2.64 0 4 0 C2.20962065 5.62690653 2.20962065 5.62690653 0.953125 7.86328125 C-0.89898204 12.01534088 -0.53373448 16.55880196 0 21 C2.31852148 25.20768713 4.55108728 26.49978525 9 28 C17.12620782 29.18222013 24.15544388 27.36448318 31.7434082 24.69116211 C33.48045341 24.08235161 35.23907697 23.53584173 37 23 C37.66 23.33 38.32 23.66 39 24 C38.01 24.33 37.02 24.66 36 25 C36 25.66 36 26.32 36 27 C37.258125 27.144375 38.51625 27.28875 39.8125 27.4375 C42.42667123 27.73748686 44.47439892 28.15813297 47 29 C48.66621616 29.03874921 50.33394172 29.0450286 52 29 C47.71792379 33.28207621 39.9799754 34.51686369 34.24462891 36.30126953 C32.412146 36.87170308 30.58593658 37.46225716 28.76171875 38.05859375 C16.99384432 41.38672062 1.96452082 41.68690184 -10 39 C-10 38.67 -10 38.34 -10 38 C-0.43 38 9.14 38 19 38 C19 36.02 19 34.04 19 32 C15.04 31.67 11.08 31.34 7 31 C7 30.34 7 29.68 7 29 C5.88625 28.690625 4.7725 28.38125 3.625 28.0625 C0 27 0 27 -2 26 C-2.3690205 8.14350797 -2.3690205 8.14350797 0 0 Z " fill="#D80D1A" transform="translate(209,430)"/>
<path d="M0 0 C0.495 1.485 0.495 1.485 1 3 C-0.48236291 5.2496315 -1.97790456 7.24546429 -3.6875 9.3125 C-4.18282227 9.92625488 -4.67814453 10.54000977 -5.18847656 11.17236328 C-10.23837824 17.38896638 -15.44796675 23.47265878 -20.70751953 29.51220703 C-21.81067708 30.78206765 -22.90438341 32.0601285 -23.99609375 33.33984375 C-28.40881298 38.48631768 -33.15853263 43.25733809 -38 48 C-38.495 46.515 -38.495 46.515 -39 45 C-38.67 44.34 -38.34 43.68 -38 43 C-37.01 43 -36.02 43 -35 43 C-35 42.01 -35 41.02 -35 40 C-34.34 40 -33.68 40 -33 40 C-32.67 38.68 -32.34 37.36 -32 36 C-31.01 36 -30.02 36 -29 36 C-29 35.34 -29 34.68 -29 34 C-28.34 34 -27.68 34 -27 34 C-27.04125 33.05125 -27.0825 32.1025 -27.125 31.125 C-27 28 -27 28 -25 26 C-23.68 26 -22.36 26 -21 26 C-21 22.7 -21 19.4 -21 16 C-19.68 16.33 -18.36 16.66 -17 17 C-17 17.66 -17 18.32 -17 19 C-16.01 19 -15.02 19 -14 19 C-14 18.01 -14 17.02 -14 16 C-13.01 16 -12.02 16 -11 16 C-10.896875 15.360625 -10.79375 14.72125 -10.6875 14.0625 C-10.3471875 13.0415625 -10.3471875 13.0415625 -10 12 C-9.01 11.67 -8.02 11.34 -7 11 C-6.30654607 9.22191371 -6.30654607 9.22191371 -6 7.125 C-5.1960684 3.38671804 -4.41121801 0 0 0 Z " fill="#D40C1C" transform="translate(425,324)"/>
<path d="M0 0 C0.33 0.66 0.66 1.32 1 2 C3.2995961 3.35336433 3.2995961 3.35336433 6 4 C8.2857711 3.23396041 8.2857711 3.23396041 10 2 C10.99 2.66 11.98 3.32 13 4 C16.63939932 3.68269476 16.63939932 3.68269476 20 3 C20.33 3.66 20.66 4.32 21 5 C17.93967541 6.62912132 14.87636963 8.252557 11.8125 9.875 C10.51602539 10.56529297 10.51602539 10.56529297 9.19335938 11.26953125 C8.35224609 11.71425781 7.51113281 12.15898437 6.64453125 12.6171875 C5.48981323 13.22989502 5.48981323 13.22989502 4.31176758 13.85498047 C-2.03795309 17 -2.03795309 17 -6 17 C-6 16.34 -6 15.68 -6 15 C-5.38125 14.54625 -4.7625 14.0925 -4.125 13.625 C-1.86557722 11.89720611 -1.07249699 10.59186772 0 8 C-0.66 7.67 -1.32 7.34 -2 7 C-1.01 6.01 -0.02 5.02 1 4 C-1.64 4 -4.28 4 -7 4 C-2.25 0 -2.25 0 0 0 Z " fill="#DA0919" transform="translate(267,442)"/>
<path d="M0 0 C0 0.33 0 0.66 0 1 C-6.21742893 1.090253 -12.37116584 1.12887657 -18.5625 0.5 C-24.23401652 -0.03361043 -29.87052993 -0.11283009 -35.5625 -0.125 C-36.44429932 -0.12951172 -37.32609863 -0.13402344 -38.23461914 -0.13867188 C-39.06598389 -0.13673828 -39.89734863 -0.13480469 -40.75390625 -0.1328125 C-41.87261108 -0.13112061 -41.87261108 -0.13112061 -43.01391602 -0.12939453 C-45.21123807 -0.07063301 -45.21123807 -0.07063301 -48 1 C-49.40664926 1.14492123 -50.8181133 1.24628931 -52.23046875 1.31640625 C-53.03291016 1.35830078 -53.83535156 1.40019531 -54.66210938 1.44335938 C-55.49548828 1.48267578 -56.32886719 1.52199219 -57.1875 1.5625 C-58.03248047 1.60568359 -58.87746094 1.64886719 -59.74804688 1.69335938 C-61.83184433 1.79931518 -63.91590103 1.9001502 -66 2 C-66 2.99 -66 3.98 -66 5 C-66.66 5 -67.32 5 -68 5 C-68 4.01 -68 3.02 -68 2 C-68.66 1.67 -69.32 1.34 -70 1 C-47.56518879 -5.04014148 -22.63918761 -5.28247711 0 0 Z " fill="#CE1A26" transform="translate(374,88)"/>
<path d="M0 0 C0 0.66 0 1.32 0 2 C0.99 1.67 1.98 1.34 3 1 C3 1.66 3 2.32 3 3 C3.66 3.33 4.32 3.66 5 4 C4.34 5.65 3.68 7.3 3 9 C3.99 8.34 4.98 7.68 6 7 C7.32 7 8.64 7 10 7 C9 10 9 10 6 12 C4.68 12 3.36 12 2 12 C1.67 12.99 1.34 13.98 1 15 C-0.65 14.67 -2.3 14.34 -4 14 C-4 13.01 -4 12.02 -4 11 C-4.66 11 -5.32 11 -6 11 C-6.66 10.34 -7.32 9.68 -8 9 C-8.99 9.495 -8.99 9.495 -10 10 C-8.41650438 4.96160484 -5.719924 0 0 0 Z " fill="#E40111" transform="translate(286,431)"/>
<path d="M0 0 C-2.04912029 2.04912029 -3.20941909 2.60188499 -5.875 3.5625 C-6.55304688 3.81128906 -7.23109375 4.06007813 -7.9296875 4.31640625 C-11.46963681 5.48525744 -14.50973327 6.12483778 -18.25 6.0625 C-20.10625 6.0315625 -20.10625 6.0315625 -22 6 C-22 6.66 -22 7.32 -22 8 C-27.33835539 9.92471317 -32.34979382 11.39891424 -38 12 C-38 12.66 -38 13.32 -38 14 C-37.34 14.33 -36.68 14.66 -36 15 C-39.12180401 15.96661363 -41.52083795 15.98988909 -44.75 15.5625 C-45.54921875 15.46066406 -46.3484375 15.35882813 -47.171875 15.25390625 C-47.77515625 15.17011719 -48.3784375 15.08632812 -49 15 C-46.40748997 12.40748997 -44.07835667 11.86987042 -40.59375 10.72265625 C-39.95441528 10.51064072 -39.31508057 10.29862518 -38.65637207 10.08018494 C-36.60605522 9.40199674 -34.553063 8.73232264 -32.5 8.0625 C-31.14826563 7.61575406 -29.79670114 7.16849377 -28.4453125 6.72070312 C-22.74058369 4.83597693 -17.02597006 2.97985873 -11.2890625 1.1953125 C-10.54865723 0.96473145 -9.80825195 0.73415039 -9.04541016 0.49658203 C-5.95160357 -0.25452833 -3.16674395 -0.20652678 0 0 Z " fill="#D52434" transform="translate(304,90)"/>
<path d="M0 0 C2.64 0 5.28 0 8 0 C8 0.66 8 1.32 8 2 C8.66 1.67 9.32 1.34 10 1 C11.44848582 0.91657841 12.90070869 0.89267139 14.3515625 0.90234375 C15.62773437 0.90717773 15.62773437 0.90717773 16.9296875 0.91210938 C17.81914062 0.92048828 18.70859375 0.92886719 19.625 0.9375 C20.5221875 0.94201172 21.419375 0.94652344 22.34375 0.95117188 C24.56256648 0.96297409 26.78125018 0.97943845 29 1 C29.495 1.99 29.495 1.99 30 3 C29.44352783 3.02916504 28.88705566 3.05833008 28.3137207 3.08837891 C14.55945581 3.88430099 2.14394439 6.20759106 -10.97314453 10.38720703 C-13.29162432 11.08816876 -15.61066375 11.60422038 -18 12 C-18 11.34 -18 10.68 -18 10 C-16.39743892 9.49487756 -14.79288208 8.99608373 -13.1875 8.5 C-12.29417969 8.2215625 -11.40085937 7.943125 -10.48046875 7.65625 C-8 7 -8 7 -5 7 C-5 6.34 -5 5.68 -5 5 C-3.02 5 -1.04 5 1 5 C1.33 3.68 1.66 2.36 2 1 C1.34 0.67 0.68 0.34 0 0 Z " fill="#D01626" transform="translate(348,198)"/>
<path d="M0 0 C1.13732426 3.40401948 0.83989957 5.77456664 0.0625 9.25 C-0.13214844 10.14203125 -0.32679687 11.0340625 -0.52734375 11.953125 C-0.68332031 12.62859375 -0.83929688 13.3040625 -1 14 C-1.66 14 -2.32 14 -3 14 C-3.33 16.31 -3.66 18.62 -4 21 C-4.66 21 -5.32 21 -6 21 C-6 33.21 -6 45.42 -6 58 C-10.73146399 53.26853601 -9.30421708 43.6565897 -9.3190918 37.31445312 C-9.14189076 24.02551887 -5.09109648 12.18524731 0 0 Z " fill="#CF212E" transform="translate(85,239)"/>
<path d="M0 0 C1.32 0 2.64 0 4 0 C2.20962065 5.62690653 2.20962065 5.62690653 0.953125 7.86328125 C-0.89898204 12.01534088 -0.53373448 16.55880196 0 21 C2.31282452 25.19734821 4.54539483 26.53010867 9 28 C16.51415571 28.72271936 23.70753961 27.80698134 31 26 C31 26.99 31 27.98 31 29 C28.36 29 25.72 29 23 29 C23 29.66 23 30.32 23 31 C17.72 31 12.44 31 7 31 C7 30.34 7 29.68 7 29 C5.88625 28.690625 4.7725 28.38125 3.625 28.0625 C0 27 0 27 -2 26 C-2.3690205 8.14350797 -2.3690205 8.14350797 0 0 Z " fill="#C91F2B" transform="translate(209,430)"/>
<path d="M0 0 C0.495 1.485 0.495 1.485 1 3 C-4.75 8 -4.75 8 -7 8 C-7.2475 8.639375 -7.495 9.27875 -7.75 9.9375 C-8.1625 10.618125 -8.575 11.29875 -9 12 C-9.66 12.144375 -10.32 12.28875 -11 12.4375 C-11.66 12.623125 -12.32 12.80875 -13 13 C-14.18391223 15.37625345 -14.18391223 15.37625345 -15 18 C-15.66 18.99 -16.32 19.98 -17 21 C-17.66 21 -18.32 21 -19 21 C-21.0133653 22.31306433 -23.01231606 23.64837492 -25 25 C-25.721875 25.350625 -26.44375 25.70125 -27.1875 26.0625 C-29.08403752 26.91228091 -29.08403752 26.91228091 -30.4375 28.5625 C-32.49199044 30.45263121 -34.27994277 30.6324247 -37 31 C-32.72722896 26.45156631 -27.94610066 22.78833506 -23 19 C-16.81890679 14.187015 -10.89124875 9.19193705 -5.12890625 3.8828125 C-3 2 -3 2 0 0 Z " fill="#FDE4E3" transform="translate(379,379)"/>
<path d="M0 0 C7.15784439 8.22226521 10.05267247 19.17642095 12.4375 29.625 C12.61345703 30.38256592 12.78941406 31.14013184 12.97070312 31.9206543 C13.81719716 35.90890916 14.18938662 39.06647301 13 43 C12.67 43 12.34 43 12 43 C11.67 40.03 11.34 37.06 11 34 C10.34 34 9.68 34 9 34 C8.67 35.32 8.34 36.64 8 38 C7.34 37.67 6.68 37.34 6 37 C6.144375 36.505 6.28875 36.01 6.4375 35.5 C8.09223197 29.12642942 8.09223197 29.12642942 7 23 C6.34 23 5.68 23 5 23 C5.03480469 22.11248047 5.03480469 22.11248047 5.0703125 21.20703125 C5.17566044 16.59429647 4.99719276 13.24403462 3 9 C3 8.01 3 7.02 3 6 C2.34 6 1.68 6 1 6 C0.67 4.02 0.34 2.04 0 0 Z " fill="#D11723" transform="translate(455,142)"/>
<path d="M0 0 C2.64 0 5.28 0 8 0 C8.495 0.99 8.495 0.99 9 2 C-2.55441246 6.55868879 -12.6843299 10.10461679 -25.25 10.25 C-25.92417969 10.25950684 -26.59835938 10.26901367 -27.29296875 10.27880859 C-31.56076818 10.25028617 -35.03225703 9.55259507 -39 8 C-39 7.67 -39 7.34 -39 7 C-37.71867187 7.02320313 -36.43734375 7.04640625 -35.1171875 7.0703125 C-19.94854842 7.32019546 -19.94854842 7.32019546 -5 5 C-4.34 4.34 -3.68 3.68 -3 3 C-2.01 3 -1.02 3 0 3 C0 2.01 0 1.02 0 0 Z " fill="#CC1725" transform="translate(151,320)"/>
<path d="M0 0 C0.89343117 2.8959493 1.12044048 3.70244116 -0.0625 6.625 C-2 9 -2 9 -5.0625 9.875 C-6.031875 10.24625 -7.00125 10.6175 -8 11 C-9.22969878 14.51190809 -9.22969878 14.51190809 -10 18 C-10.99 18.33 -11.98 18.66 -13 19 C-13.66 19.99 -14.32 20.98 -15 22 C-15.66 22 -16.32 22 -17 22 C-16.67 22.99 -16.34 23.98 -16 25 C-16.763125 25.2475 -17.52625 25.495 -18.3125 25.75 C-21.2364045 27.10995558 -22.30004356 28.31585826 -24 31 C-24.66 30.67 -25.32 30.34 -26 30 C-17.81002675 19.45522432 -9.56812585 9.34445538 0 0 Z " fill="#D40D1F" transform="translate(122,191)"/>
<path d="M0 0 C1.23032097 3.51985866 0.70563898 5.50453502 -0.4375 9 C-2.00865591 14.82547307 -2.27701667 20.26001909 -2.25 26.25 C-2.24669678 27.08917969 -2.24339355 27.92835938 -2.23999023 28.79296875 C-2.16336085 33.93271972 -1.72687767 38.91185634 -1 44 C-1.66 44 -2.32 44 -3 44 C-5.36715207 37.48093836 -5.29790861 31.25786997 -5.25 24.375 C-5.25773438 23.25609375 -5.26546875 22.1371875 -5.2734375 20.984375 C-5.27085937 19.90414063 -5.26828125 18.82390625 -5.265625 17.7109375 C-5.26336914 16.73431152 -5.26111328 15.75768555 -5.25878906 14.75146484 C-4.98322637 11.82166151 -4.19461405 9.6738509 -3 7 C-2.65772583 5.66893378 -2.32248257 4.33599921 -2 3 C-1 1 -1 1 0 0 Z " fill="#FEDFDC" transform="translate(171,398)"/>
<path d="M0 0 C0.99 0.33 1.98 0.66 3 1 C-6 10 -15 19 -24 28 C-23.39209764 24.97384868 -22.45703588 22.8380605 -20.6875 20.3125 C-20.27886719 19.71050781 -19.87023437 19.10851562 -19.44921875 18.48828125 C-17.7086559 16.70080296 -16.42935413 16.38848947 -14 16 C-13.90332031 15.15115234 -13.90332031 15.15115234 -13.8046875 14.28515625 C-12.66981265 11.06233205 -10.70271305 9.64536726 -8.125 7.4375 C-3.94840658 3.84051381 -3.94840658 3.84051381 0 0 Z " fill="#FDE8E3" transform="translate(130,180)"/>
<path d="M0 0 C0 0.99 0 1.98 0 3 C-1.63064764 4.05771739 -3.30280873 5.05273046 -5 6 C-5.45375 6.474375 -5.9075 6.94875 -6.375 7.4375 C-8.0459533 9.04418587 -9.59993607 9.95118443 -11.625 11.0625 C-15.03314359 12.60541916 -15.03314359 12.60541916 -16 15 C-16.61875 15.12375 -17.2375 15.2475 -17.875 15.375 C-20.19089052 15.81536435 -20.19089052 15.81536435 -21.4375 18.0625 C-21.953125 18.701875 -22.46875 19.34125 -23 20 C-25.6875 20.25 -25.6875 20.25 -28 20 C-23.7528134 15.4175092 -18.96174822 11.91731435 -13.875 8.3125 C-13.06417969 7.73177734 -12.25335938 7.15105469 -11.41796875 6.55273438 C-2.25171604 0 -2.25171604 0 0 0 Z " fill="#FDE3DF" transform="translate(232,272)"/>
<path d="M0 0 C0.33 0.66 0.66 1.32 1 2 C-2.37707575 10.79647827 -7.39845994 18.42553729 -15 24 C-15.66 24 -16.32 24 -17 24 C-17.33 24.66 -17.66 25.32 -18 26 C-18 22.39630125 -17.45736847 22.08770144 -15.0625 19.5625 C-9.52167798 13.47890357 -4.56338897 6.84508346 0 0 Z " fill="#FDDDDA" transform="translate(267,368)"/>
<path d="M0 0 C5.04961009 -0.07498279 10.09888564 -0.12898919 15.14892578 -0.16479492 C16.86154842 -0.1797446 18.57413371 -0.20011186 20.28662109 -0.22631836 C40.06747605 -0.52112362 40.06747605 -0.52112362 49 3 C49.66 3.66 50.32 4.32 51 5 C48.08293797 4.69088746 45.1663891 4.37784575 42.25 4.0625 C41.425 3.97548828 40.6 3.88847656 39.75 3.79882812 C38.95078125 3.71181641 38.1515625 3.62480469 37.328125 3.53515625 C36.5949707 3.456604 35.86181641 3.37805176 35.10644531 3.29711914 C33 3 33 3 31.15039062 2.48632812 C28.18328851 1.81529413 25.3049635 1.77690677 22.265625 1.68359375 C20.97011719 1.64169922 19.67460937 1.59980469 18.33984375 1.55664062 C16.97656524 1.51683329 15.61328394 1.47712094 14.25 1.4375 C12.87108125 1.39427726 11.49217474 1.35066179 10.11328125 1.30664062 C6.7422881 1.20056042 3.37122174 1.0985015 0 1 C0 0.67 0 0.34 0 0 Z " fill="#FDC9CA" transform="translate(327,84)"/>
<path d="M0 0 C1.32 0.33 2.64 0.66 4 1 C1.33597658 2.89956847 -1.33170249 4.79394112 -4 6.6875 C-4.74378906 7.21794922 -5.48757813 7.74839844 -6.25390625 8.29492188 C-19.94818827 18 -19.94818827 18 -23 18 C-22 15 -22 15 -20.0625 13.9375 C-19.381875 13.628125 -18.70125 13.31875 -18 13 C-17.34 12.34 -16.68 11.68 -16 11 C-11.41176471 7 -11.41176471 7 -8 7 C-7.67 6.34 -7.34 5.68 -7 5 C-6.34 5.33 -5.68 5.66 -5 6 C-4.67 4.68 -4.34 3.36 -4 2 C-2.68 2 -1.36 2 0 2 C0 1.34 0 0.68 0 0 Z " fill="#FCE3E2" transform="translate(280,429)"/>
<path d="M0 0 C1.65 0 3.3 0 5 0 C2.81661227 4.02203002 0.26247031 6.81167674 -3 10 C-4.83930185 12.05779344 -6.6468204 14.1403261 -8.44921875 16.23046875 C-9.58693322 17.52866688 -10.7794033 18.7794033 -12 20 C-12.66 18.35 -13.32 16.7 -14 15 C-9.25 11 -9.25 11 -7 11 C-6.67 10.01 -6.34 9.02 -6 8 C-5.34 8.33 -4.68 8.66 -4 9 C-3.67 7.35 -3.34 5.7 -3 4 C-1.68 4 -0.36 4 1 4 C0.67 2.68 0.34 1.36 0 0 Z " fill="#CF1625" transform="translate(229,405)"/>
<path d="M0 0 C2.64 0 5.28 0 8 0 C4.22180665 4.00936388 0.20415407 7.17270443 -4.3125 10.3125 C-4.95767578 10.76689453 -5.60285156 11.22128906 -6.26757812 11.68945312 C-7.84197142 12.79735952 -9.42055646 13.89930525 -11 15 C-11.66 14.34 -12.32 13.68 -13 13 C-12.34 13 -11.68 13 -11 13 C-11 12.34 -11 11.68 -11 11 C-10.01 11 -9.02 11 -8 11 C-8 9.35 -8 7.7 -8 6 C-7.34 5.67 -6.68 5.34 -6 5 C-6 5.66 -6 6.32 -6 7 C-4.68 6.67 -3.36 6.34 -2 6 C-1.855625 5.38125 -1.71125 4.7625 -1.5625 4.125 C-1 2 -1 2 0 0 Z " fill="#D51829" transform="translate(204,285)"/>
<path d="M0 0 C0.7425 0.598125 1.485 1.19625 2.25 1.8125 C-1.44418201 3.043894 -3.9556261 2.45682764 -7.75 1.8125 C-7.75 0.4925 -7.75 -0.8275 -7.75 -2.1875 C-10.72 -2.1875 -13.69 -2.1875 -16.75 -2.1875 C-16.75 -2.8475 -16.75 -3.5075 -16.75 -4.1875 C-27.145 -3.6925 -27.145 -3.6925 -37.75 -3.1875 C-37.75 -3.5175 -37.75 -3.8475 -37.75 -4.1875 C-25.81003231 -6.47938234 -10.57897735 -6.91323869 0 0 Z " fill="#CC2631" transform="translate(267.75,335.1875)"/>
<path d="M0 0 C0.99 0.33 1.98 0.66 3 1 C0.98551305 3.11490467 -1.04230426 4.8230715 -3.46875 6.4453125 C-4.12230469 6.88230469 -4.77585938 7.31929687 -5.44921875 7.76953125 C-6.12597656 8.21683594 -6.80273438 8.66414062 -7.5 9.125 C-8.17675781 9.58003906 -8.85351562 10.03507813 -9.55078125 10.50390625 C-10.20433594 10.93832031 -10.85789063 11.37273437 -11.53125 11.8203125 C-12.12486328 12.21492676 -12.71847656 12.60954102 -13.33007812 13.01611328 C-15 14 -15 14 -18 15 C-18 14.34 -18 13.68 -18 13 C-17.34 13 -16.68 13 -16 13 C-15.855625 12.071875 -15.71125 11.14375 -15.5625 10.1875 C-14 7 -14 7 -11.96875 6.0390625 C-10.38878174 5.56199416 -8.79546101 5.12674262 -7.19140625 4.73828125 C-4.73031727 3.90914432 -3.71941047 2.89987338 -2 1 C-1.34 0.67 -0.68 0.34 0 0 Z " fill="#FBEBE4" transform="translate(188,135)"/>
<path d="M0 0 C0.66 0.33 1.32 0.66 2 1 C-1.0299162 4.28240922 -4.38972281 6.84293938 -7.96875 9.48046875 C-11.49497003 12.11835258 -14.8834258 14.8834258 -18 18 C-20.33333333 18 -22.66666667 18 -25 18 C-22.37137334 15.02211525 -19.27662415 13.26041616 -15.875 11.25 C-10.25481549 7.87930953 -5.0569401 4.18144917 0 0 Z " fill="#FCDBDC" transform="translate(189,302)"/>
<path d="M0 0 C0.98120464 3.05263664 0.98120464 4.94736336 0 8 C0.66 8 1.32 8 2 8 C2 8.99 2 9.98 2 11 C2.66 11 3.32 11 4 11 C4 11.99 4 12.98 4 14 C5.32 14.33 6.64 14.66 8 15 C8.66 17.31 9.32 19.62 10 22 C9.01 22 8.02 22 7 22 C5.38671875 19.65625 5.38671875 19.65625 3.6875 16.5 C0.80636826 11.326223 -2.29564548 6.61348182 -6 2 C-4.02 1.34 -2.04 0.68 0 0 Z " fill="#FEDDDD" transform="translate(450,124)"/>
<path d="M0 0 C0.66 0 1.32 0 2 0 C1.67 1.98 1.34 3.96 1 6 C1.66 5.01 2.32 4.02 3 3 C4.32 3.33 5.64 3.66 7 4 C5.92338719 5.4425402 4.83839897 6.87883161 3.75 8.3125 C3.14671875 9.11300781 2.5434375 9.91351563 1.921875 10.73828125 C0.09729864 12.88549612 -1.68297046 14.41601299 -4 16 C-3.125 11.125 -3.125 11.125 -2 10 C-2.020625 9.071875 -2.04125 8.14375 -2.0625 7.1875 C-2.00125362 4.06393443 -1.6054248 2.6088153 0 0 Z " fill="#D90817" transform="translate(255,372)"/>
<path d="M0 0 C0.66 0.33 1.32 0.66 2 1 C1.01 2.485 1.01 2.485 0 4 C0 4.66 0 5.32 0 6 C-0.78375 6.268125 -1.5675 6.53625 -2.375 6.8125 C-5.28114923 7.84814432 -5.28114923 7.84814432 -7 11 C-7.66 11 -8.32 11 -9 11 C-9 11.99 -9 12.98 -9 14 C-9.70125 14.20625 -10.4025 14.4125 -11.125 14.625 C-14.95725116 16.45781577 -17.10452507 18.90251519 -20 22 C-20.66 21.67 -21.32 21.34 -22 21 C-15.19126065 14.09784806 -8.42028943 7.25305289 -1 1 C-0.67 0.67 -0.34 0.34 0 0 Z " fill="#DA192D" transform="translate(145,169)"/>
<path d="M0 0 C1.22589844 0.01353516 1.22589844 0.01353516 2.4765625 0.02734375 C3.41628906 0.04474609 3.41628906 0.04474609 4.375 0.0625 C0.84343481 3.75131485 -2.81034092 6.83632244 -6.9375 9.875 C-7.48728516 10.28169922 -8.03707031 10.68839844 -8.60351562 11.10742188 C-9.94125547 12.09618611 -11.28273623 13.07988585 -12.625 14.0625 C-12.955 12.7425 -13.285 11.4225 -13.625 10.0625 C-10.56382432 7.43863513 -9.89326873 7.0625 -5.625 7.0625 C-5.295 5.4125 -4.965 3.7625 -4.625 2.0625 C-5.285 1.7325 -5.945 1.4025 -6.625 1.0625 C-4.21954362 -0.14022819 -2.67503047 -0.03821472 0 0 Z " fill="#F8EBE5" transform="translate(165.625,149.9375)"/>
<path d="M0 0 C0.66 0.33 1.32 0.66 2 1 C1.57847656 2.22976562 1.15695313 3.45953125 0.72265625 4.7265625 C0.16902921 6.35929309 -0.38434275 7.99211019 -0.9375 9.625 C-1.35418945 10.83736328 -1.35418945 10.83736328 -1.77929688 12.07421875 C-4.17957923 19.18830863 -5.15065743 25.90782161 -5.5625 33.375 C-5.60568359 34.11105469 -5.64886719 34.84710938 -5.69335938 35.60546875 C-5.79843799 37.40348068 -5.89962093 39.20171958 -6 41 C-6.33 41 -6.66 41 -7 41 C-7 33.08 -7 25.16 -7 17 C-6.34 17 -5.68 17 -5 17 C-4.9175 16.05125 -4.835 15.1025 -4.75 14.125 C-4.06008234 9.11022533 -1.99662356 4.61545074 0 0 Z " fill="#FEDEDB" transform="translate(82,243)"/>
<path d="M0 0 C11.11868687 10.79166667 11.11868687 10.79166667 13 17 C8.41317869 14.973265 5.11037731 12.97437101 2 9 C1.03831535 6.0352209 0.4497558 3.08116289 0 0 Z " fill="#D51020" transform="translate(440,122)"/>
<path d="M0 0 C-1.19899698 3.0831351 -2.47700477 6.06279492 -4 9 C-4.845625 8.814375 -5.69125 8.62875 -6.5625 8.4375 C-10.2773282 7.96470368 -13.32974273 8.33935369 -17 9 C-13.94746898 6.59124922 -10.78648153 4.67456202 -7.375 2.8125 C-6.41335937 2.28269531 -5.45171875 1.75289063 -4.4609375 1.20703125 C-2 0 -2 0 0 0 Z M-8 6 C-7 8 -7 8 -7 8 Z " fill="#D70B1A" transform="translate(220,121)"/>
<path d="M0 0 C0 0.33 0 0.66 0 1 C-4.67209049 2.43023178 -9.13103697 3.40380045 -14 4 C-14 4.66 -14 5.32 -14 6 C-13.34 6.33 -12.68 6.66 -12 7 C-15.12180401 7.96661363 -17.52083795 7.98988909 -20.75 7.5625 C-21.94882812 7.40974609 -21.94882812 7.40974609 -23.171875 7.25390625 C-23.77515625 7.17011719 -24.3784375 7.08632812 -25 7 C-19.02787642 1.02787642 -8.07400292 -0.69603473 0 0 Z " fill="#D11F28" transform="translate(280,98)"/>
<path d="M0 0 C1.50583852 3.94529691 0.5103082 7.46526188 -0.375 11.4375 C-0.51421875 12.09298828 -0.6534375 12.74847656 -0.796875 13.42382812 C-1.37117023 16.12464109 -1.95989264 18.82186799 -2.56640625 21.515625 C-3.13509611 24.77406422 -3.3466261 28.01271318 -3.5625 31.3125 C-3.64628906 32.56675781 -3.73007813 33.82101562 -3.81640625 35.11328125 C-3.87699219 36.06589844 -3.93757812 37.01851563 -4 38 C-4.33 38 -4.66 38 -5 38 C-5.6404167 24.36623997 -4.3769819 12.94336076 0 0 Z " fill="#CD2433" transform="translate(173,396)"/>
<path d="M0 0 C2.046875 3.71875 2.046875 3.71875 1.625 6.25 C1.41875 6.8275 1.2125 7.405 1 8 C0.01 8 -0.98 8 -2 8 C-3.33981486 8.3062434 -4.67511887 8.63451555 -6 9 C-6.68707555 11.49064888 -7 13.37886292 -7 16 C-9.31 15.67 -11.62 15.34 -14 15 C-9.59156563 9.70987876 -4.92440206 4.81191572 0 0 Z " fill="#FCE9E6" transform="translate(394,364)"/>
<path d="M0 0 C0.99 0.66 1.98 1.32 3 2 C-3.435 7.94 -3.435 7.94 -10 14 C-10.33 13.01 -10.66 12.02 -11 11 C-10.03542166 9.64082143 -9.03145371 8.30915279 -8 7 C-7.896875 6.29875 -7.79375 5.5975 -7.6875 4.875 C-7.460625 4.25625 -7.23375 3.6375 -7 3 C-4 1.8125 -4 1.8125 -1 1 C-0.67 0.67 -0.34 0.34 0 0 Z " fill="#FBEAE5" transform="translate(341,379)"/>
<path d="M0 0 C2 1.3125 2 1.3125 4 4 C5.38614968 11.94370391 3.13343638 18.76791692 0 26 C-0.33 26 -0.66 26 -1 26 C-1 23.36 -1 20.72 -1 18 C-0.01 18 0.98 18 2 18 C2 14.04 2 10.08 2 6 C1.34 6 0.68 6 0 6 C0 4.02 0 2.04 0 0 Z " fill="#CB111C" transform="translate(270,338)"/>
<path d="M0 0 C0.66 0.33 1.32 0.66 2 1 C1.195625 1.61875 0.39125 2.2375 -0.4375 2.875 C-3.03874519 4.74164041 -3.03874519 4.74164041 -4 7 C-4.66 7 -5.32 7 -6 7 C-6 7.66 -6 8.32 -6 9 C-6.99 9.33 -7.98 9.66 -9 10 C-10.70680947 11.62553283 -12.37660195 13.29115995 -14 15 C-15 16 -15 16 -17.5625 16.0625 C-18.366875 16.041875 -19.17125 16.02125 -20 16 C-16.07795039 11.83425022 -11.83123826 8.51588273 -7.1875 5.1875 C-6.49462891 4.68541016 -5.80175781 4.18332031 -5.08789062 3.66601562 C-3.39482309 2.4400012 -1.69781244 1.2194351 0 0 Z " fill="#CC1829" transform="translate(174,147)"/>
<path d="M0 0 C1.0968151 3.29044529 0.90538622 3.83114824 0 7 C-0.34578768 8.99788438 -0.68143549 10.99759451 -1 13 C-2.98 13.66 -4.96 14.32 -7 15 C-7 14.01 -7 13.02 -7 12 C-7.66 11.67 -8.32 11.34 -9 11 C-8.43410156 10.37351562 -7.86820312 9.74703125 -7.28515625 9.1015625 C-6.18494141 7.87566406 -6.18494141 7.87566406 -5.0625 6.625 C-4.33160156 5.81289063 -3.60070312 5.00078125 -2.84765625 4.1640625 C-0.97010529 2.14075833 -0.97010529 2.14075833 0 0 Z " fill="#D81323" transform="translate(383,336)"/>
<path d="M0 0 C1.60226148 4.00565371 0.47694566 7.08609399 -1 11 C-1.99 11.33 -2.98 11.66 -4 12 C-3.67 13.65 -3.34 15.3 -3 17 C-4.98 17.99 -4.98 17.99 -7 19 C-7 19.66 -7 20.32 -7 21 C-8.32 21.33 -9.64 21.66 -11 22 C-10.45730469 20.99839844 -9.91460937 19.99679687 -9.35546875 18.96484375 C-8.6326572 17.62247944 -7.91000971 16.28002679 -7.1875 14.9375 C-6.83107422 14.28072266 -6.47464844 13.62394531 -6.10742188 12.94726562 C-3.83254487 8.71056808 -1.83286763 4.44629404 0 0 Z " fill="#CF1E30" transform="translate(403,302)"/>
<path d="M0 0 C0.75390625 1.6484375 0.75390625 1.6484375 1 4 C-0.66015625 6.7265625 -0.66015625 6.7265625 -3.0625 9.625 C-3.83722656 10.58664062 -4.61195313 11.54828125 -5.41015625 12.5390625 C-8.21165455 15.20111971 -10.28531033 16.08345828 -14 17 C-13.175 16.05125 -12.35 15.1025 -11.5 14.125 C-7.54358862 9.51549679 -3.77324563 4.75965248 0 0 Z " fill="#FDE0DE" transform="translate(409,347)"/>
<path d="M0 0 C0.66 0.33 1.32 0.66 2 1 C0.66207941 4.23386836 -0.36062227 5.53384855 -3.5625 6.9375 C-7.53147826 8.74486715 -11.20564528 10.8653328 -14.921875 13.14453125 C-17.43734529 14.180035 -18.45651769 13.75275123 -21 13 C-20.5059668 12.71278076 -20.01193359 12.42556152 -19.50292969 12.12963867 C-17.25044832 10.81815756 -15.00021326 9.50286856 -12.75 8.1875 C-11.97269531 7.73568359 -11.19539063 7.28386719 -10.39453125 6.81835938 C-9.64042969 6.37685547 -8.88632812 5.93535156 -8.109375 5.48046875 C-7.41811523 5.07723389 -6.72685547 4.67399902 -6.01464844 4.25854492 C-3.91474773 2.94674316 -1.95950711 1.51189421 0 0 Z " fill="#FCDAD7" transform="translate(305,435)"/>
<path d="M0 0 C1.32 0.33 2.64 0.66 4 1 C-0.95 5.95 -5.9 10.9 -11 16 C-11.33 15.01 -11.66 14.02 -12 13 C-11.67 12.34 -11.34 11.68 -11 11 C-10.01 11 -9.02 11 -8 11 C-8 10.01 -8 9.02 -8 8 C-7.34 8 -6.68 8 -6 8 C-5.67 6.68 -5.34 5.36 -5 4 C-4.01 4 -3.02 4 -2 4 C-2 3.34 -2 2.68 -2 2 C-1.34 2 -0.68 2 0 2 C0 1.34 0 0.68 0 0 Z " fill="#D01122" transform="translate(398,356)"/>
<path d="M0 0 C1.32 0.66 2.64 1.32 4 2 C2.96359375 2.68707031 1.9271875 3.37414062 0.859375 4.08203125 C-0.51045778 4.99212563 -1.88024716 5.90228531 -3.25 6.8125 C-3.93191406 7.26431641 -4.61382812 7.71613281 -5.31640625 8.18164062 C-8.05593453 10.00355991 -10.75547955 11.81094197 -13.359375 13.82421875 C-15 15 -15 15 -17 15 C-17 13 -17 13 -15.25 10.875 C-13 9 -13 9 -9 9 C-9 8.34 -9 7.68 -9 7 C-8.34 7 -7.68 7 -7 7 C-7 6.34 -7 5.68 -7 5 C-4 3 -4 3 0 3 C0 2.01 0 1.02 0 0 Z " fill="#D51527" transform="translate(254,252)"/>
<path d="M0 0 C-0.6290625 0.49628906 -1.258125 0.99257812 -1.90625 1.50390625 C-7.4010136 5.8649611 -12.76974414 10.32491096 -18 15 C-18.33 14.01 -18.66 13.02 -19 12 C-18.44570312 11.52949219 -17.89140625 11.05898437 -17.3203125 10.57421875 C-16.59585938 9.95160156 -15.87140625 9.32898438 -15.125 8.6875 C-14.40570313 8.07261719 -13.68640625 7.45773438 -12.9453125 6.82421875 C-10.80820669 4.9587676 -10.80820669 4.9587676 -9 2 C-5.54296776 -0.54728691 -4.07197977 -1.28224044 0 0 Z " fill="#FDE6DF" transform="translate(152,165)"/>
<path d="M0 0 C3.98462121 3.05487626 4.86318057 6.06978195 5.76171875 10.8046875 C6.04289367 13.39518431 5.79990285 15.52030116 5 18 C4.67 18 4.34 18 4 18 C3.67 15.03 3.34 12.06 3 9 C2.34 9 1.68 9 1 9 C0.67 10.32 0.34 11.64 0 13 C-0.66 12.67 -1.32 12.34 -2 12 C-1.7834375 11.2575 -1.7834375 11.2575 -1.5625 10.5 C-0.78005593 7.02247078 -0.41305236 3.54044877 0 0 Z " fill="#D71521" transform="translate(463,167)"/>
<path d="M0 0 C0.66 0.33 1.32 0.66 2 1 C1.67 1.66 1.34 2.32 1 3 C1.99 3 2.98 3 4 3 C4 3.66 4 4.32 4 5 C2.78763672 5.05607422 2.78763672 5.05607422 1.55078125 5.11328125 C0.48214844 5.17902344 -0.58648437 5.24476562 -1.6875 5.3125 C-2.74324219 5.37050781 -3.79898438 5.42851563 -4.88671875 5.48828125 C-8.24145062 6.03968636 -10.13253995 7.25607626 -13 9 C-13.99 8.67 -14.98 8.34 -16 8 C-13.3810335 5.3810335 -10.35254361 4.24305325 -7 2.8125 C-6.03707031 2.38420898 -6.03707031 2.38420898 -5.0546875 1.94726562 C-3.39588841 1.23412083 -1.69936977 0.61019037 0 0 Z " fill="#D11629" transform="translate(252,105)"/>
<path d="M0 0 C2 1 2 1 2.8515625 3.28515625 C3.10679687 4.20167969 3.36203125 5.11820312 3.625 6.0625 C3.88539063 6.98160156 4.14578125 7.90070313 4.4140625 8.84765625 C4.60742188 9.55792969 4.80078125 10.26820313 5 11 C5.99 10.67 6.98 10.34 8 10 C7.979375 10.928125 7.95875 11.85625 7.9375 12.8125 C7.84230396 16.02286011 7.84230396 16.02286011 9 19 C9.66 19 10.32 19 11 19 C10.67 19.99 10.34 20.98 10 22 C4.60013324 15.55615899 0 8.63679584 0 0 Z " fill="#CB1225" transform="translate(169,435)"/>
<path d="M0 0 C1.44826172 0.02707031 1.44826172 0.02707031 2.92578125 0.0546875 C5.28492033 0.10140313 7.64191075 0.16687863 10 0.25 C10 0.58 10 0.91 10 1.25 C8.74445313 1.35957031 7.48890625 1.46914063 6.1953125 1.58203125 C-6.63880009 2.73997179 -6.63880009 2.73997179 -19 6.25 C-19 5.59 -19 4.93 -19 4.25 C-12.43849566 0.3192875 -7.56678248 -0.27136048 0 0 Z " fill="#FEE1DE" transform="translate(239,328.75)"/>
<path d="M0 0 C0.8971875 0.309375 0.8971875 0.309375 1.8125 0.625 C-0.28937532 1.94129567 -2.39381676 3.25312997 -4.5 4.5625 C-5.39235352 5.12227539 -5.39235352 5.12227539 -6.30273438 5.69335938 C-8.91497744 7.31324194 -11.25971173 8.64907058 -14.1875 9.625 C-14.1875 8.635 -14.1875 7.645 -14.1875 6.625 C-14.8475 6.625 -15.5075 6.625 -16.1875 6.625 C-16.1875 5.965 -16.1875 5.305 -16.1875 4.625 C-15.135625 4.7178125 -15.135625 4.7178125 -14.0625 4.8125 C-8.93510701 4.47810481 -4.62062889 -0.79210781 0 0 Z " fill="#D11727" transform="translate(178.1875,309.375)"/>
<path d="M0 0 C0.66 0.33 1.32 0.66 2 1 C-3.61 5.29 -9.22 9.58 -15 14 C-15.33 13.01 -15.66 12.02 -16 11 C-15.195625 10.38125 -14.39125 9.7625 -13.5625 9.125 C-10.96125481 7.25835959 -10.96125481 7.25835959 -10 5 C-8.35 5 -6.7 5 -5 5 C-5 4.01 -5 3.02 -5 2 C-2.625 0.9375 -2.625 0.9375 0 0 Z " fill="#FCE1DB" transform="translate(314,404)"/>
<path d="M0 0 C5.61946506 3.4524818 10.0679294 6.67267854 14 12 C10.69058796 12 8.88909849 11.59660706 6 10 C5.1875 7.375 5.1875 7.375 5 5 C4.38125 4.87625 3.7625 4.7525 3.125 4.625 C1 4 1 4 -1 2 C-0.67 1.34 -0.34 0.68 0 0 Z " fill="#D21D29" transform="translate(426,110)"/>
<path d="M0 0 C0 0.99 0 1.98 0 3 C-5.34883721 8 -5.34883721 8 -8 8 C-8.020625 8.598125 -8.04125 9.19625 -8.0625 9.8125 C-9 12 -9 12 -12.375 13.5625 C-13.57125 14.036875 -14.7675 14.51125 -16 15 C-17.88029239 16.53951047 -17.88029239 16.53951047 -19 18 C-19.66 17.34 -20.32 16.68 -21 16 C-20.54149658 15.65743164 -20.08299316 15.31486328 -19.6105957 14.96191406 C-17.510584 13.39213876 -15.41153584 11.82107991 -13.3125 10.25 C-12.2306543 9.44175781 -12.2306543 9.44175781 -11.12695312 8.6171875 C-7.36855238 5.80267735 -3.64469429 2.96176341 0 0 Z " fill="#C9212E" transform="translate(321,400)"/>
<path d="M0 0 C0.99 0.33 1.98 0.66 3 1 C3 1.66 3 2.32 3 3 C2.175 3.7425 1.35 4.485 0.5 5.25 C-2.31484288 7.79364102 -2.31484288 7.79364102 -2.3125 11.3125 C-2.209375 12.199375 -2.10625 13.08625 -2 14 C-3.65 13.67 -5.3 13.34 -7 13 C-6.67 12.34 -6.34 11.68 -6 11 C-5.34 11 -4.68 11 -4 11 C-4.99 9.68 -5.98 8.36 -7 7 C-4.69 4.69 -2.38 2.38 0 0 Z " fill="#D90B1B" transform="translate(350,374)"/>
<path d="M0 0 C8.98144688 -0.14969078 14.59221514 4.05205617 21 10 C22.34765625 12.29296875 22.34765625 12.29296875 23 14 C22.01 14 21.02 14 20 14 C19.484375 13.29875 18.96875 12.5975 18.4375 11.875 C13.77270399 6.37293291 6.94611866 2.82792596 0 1 C0 0.67 0 0.34 0 0 Z " fill="#CC2C38" transform="translate(383,202)"/>
<path d="M0 0 C6 2 12 4 18 6 C18 6.99 18 7.98 18 9 C17.01 9.495 17.01 9.495 16 10 C13.3203125 8.92578125 13.3203125 8.92578125 10.125 7.3125 C8.55105469 6.53326172 8.55105469 6.53326172 6.9453125 5.73828125 C4.13796309 4.08142384 2.17248841 2.40862845 0 0 Z " fill="#CF1B27" transform="translate(180,458)"/>
<path d="M0 0 C2.58875926 1.07162593 5.17045395 2.1565938 7.75 3.25 C8.47960937 3.55035156 9.20921875 3.85070312 9.9609375 4.16015625 C14.06146681 5.91220059 17.06538771 7.50935591 20 11 C19.360625 10.690625 18.72125 10.38125 18.0625 10.0625 C14.07950896 8.68064597 10.18349151 8.3463457 6 8 C6.33 7.01 6.66 6.02 7 5 C4.69 4.01 2.38 3.02 0 2 C0 1.34 0 0.68 0 0 Z " fill="#CC1425" transform="translate(400,96)"/>
<path d="M0 0 C-4.2954975 3.74123976 -8.99900452 6.34151874 -14 9 C-14 7.68 -14 6.36 -14 5 C-12.35 4.34 -10.7 3.68 -9 3 C-9 2.01 -9 1.02 -9 0 C-5.93109813 -1.53445094 -3.29905734 -0.54984289 0 0 Z " fill="#DA1427" transform="translate(312,431)"/>
<path d="M0 0 C0.99 0.99 1.98 1.98 3 3 C2.06725891 4.12894876 1.12859878 5.25300876 0.1875 6.375 C-0.33457031 7.00148438 -0.85664063 7.62796875 -1.39453125 8.2734375 C-3 10 -3 10 -6 12 C-6.66 10.02 -7.32 8.04 -8 6 C-7.34 5.67 -6.68 5.34 -6 5 C-6 5.66 -6 6.32 -6 7 C-4.68 6.67 -3.36 6.34 -2 6 C-1.855625 5.195625 -1.71125 4.39125 -1.5625 3.5625 C-1 1 -1 1 0 0 Z " fill="#D51524" transform="translate(383,369)"/>
<path d="M0 0 C0.66 0 1.32 0 2 0 C0.6077541 4.62675657 -1.29520984 8.64686231 -3.625 12.875 C-4.25664062 14.02742188 -4.88828125 15.17984375 -5.5390625 16.3671875 C-6.02117187 17.23601562 -6.50328125 18.10484375 -7 19 C-7.33 19 -7.66 19 -8 19 C-8 17.02 -8 15.04 -8 13 C-7.01 13 -6.02 13 -5 13 C-5.33 11.68 -5.66 10.36 -6 9 C-5.01 8.67 -4.02 8.34 -3 8 C-3 7.01 -3 6.02 -3 5 C-2.34 5 -1.68 5 -1 5 C-0.67 3.35 -0.34 1.7 0 0 Z " fill="#C91628" transform="translate(446,288)"/>
<path d="M0 0 C0.66 0.66 1.32 1.32 2 2 C0.54420484 4.12677894 -0.91450225 6.2514542 -2.375 8.375 C-2.7875 8.97828125 -3.2 9.5815625 -3.625 10.203125 C-5.3022395 12.63782751 -6.90467771 14.90467771 -9 17 C-9.6875 15.25 -9.6875 15.25 -10 13 C-8.6875 10.75 -8.6875 10.75 -7 9 C-6.34 9 -5.68 9 -5 9 C-4.5978125 7.88625 -4.5978125 7.88625 -4.1875 6.75 C-3.05770579 4.13363446 -1.79106798 2.19812889 0 0 Z " fill="#FDDAD5" transform="translate(98,215)"/>
<path d="M0 0 C6.93 0.33 13.86 0.66 21 1 C20.67 1.66 20.34 2.32 20 3 C12.91213024 4.37184576 6.9967971 3.58245318 0 2 C0 1.34 0 0.68 0 0 Z " fill="#FEDFD9" transform="translate(201,469)"/>
<path d="M0 0 C0.93423645 3.01031744 1.04449911 3.86650268 0 7 C-1.9609375 8.60546875 -1.9609375 8.60546875 -4.375 10.1875 C-5.16648438 10.71730469 -5.95796875 11.24710937 -6.7734375 11.79296875 C-9 13 -9 13 -12 13 C-8.49058007 8.81522779 -4.91806547 4.80612075 -1 1 C-0.67 0.67 -0.34 0.34 0 0 Z " fill="#FBDEDC" transform="translate(235,404)"/>
<path d="M0 0 C2.64 0 5.28 0 8 0 C8.33 0.66 8.66 1.32 9 2 C7.42274653 2.70133599 5.83788667 3.385583 4.25 4.0625 C3.36828125 4.44535156 2.4865625 4.82820313 1.578125 5.22265625 C-1.15256309 6.04600008 -2.36901347 5.9773992 -5 5 C-4.34 4.34 -3.68 3.68 -3 3 C-2.01 3 -1.02 3 0 3 C0 2.01 0 1.02 0 0 Z " fill="#DB0513" transform="translate(151,320)"/>
<path d="M0 0 C0.99 0 1.98 0 3 0 C0.83836487 6.93998648 -1.8936214 13.43117569 -5 20 C-5.33 20 -5.66 20 -6 20 C-6 18.35 -6 16.7 -6 15 C-5.34 15 -4.68 15 -4 15 C-4 13.35 -4 11.7 -4 10 C-3.34 10 -2.68 10 -2 10 C-2 8.02 -2 6.04 -2 4 C-1.34 4 -0.68 4 0 4 C0 2.68 0 1.36 0 0 Z " fill="#C91B2A" transform="translate(455,266)"/>
<path d="M0 0 C0.33 0 0.66 0 1 0 C1 2.64 1 5.28 1 8 C0.01 8.33 -0.98 8.66 -2 9 C-2 10.65 -2 12.3 -2 14 C-2.99 14.495 -2.99 14.495 -4 15 C-4.66 14.67 -5.32 14.34 -6 14 C-4.50829734 9.0276578 -2.39542583 4.58154261 0 0 Z " fill="#CF1423" transform="translate(183,374)"/>
<path d="M0 0 C0 0.99 0 1.98 0 3 C-1.3921875 3.680625 -1.3921875 3.680625 -2.8125 4.375 C-6.03921389 5.9421633 -6.03921389 5.9421633 -9 8 C-11.32387947 8.39387788 -13.65793749 8.73486085 -16 9 C-13.50506504 6.18368359 -10.73437182 4.59044019 -7.4375 2.8125 C-6.46683594 2.28269531 -5.49617188 1.75289062 -4.49609375 1.20703125 C-2 0 -2 0 0 0 Z " fill="#FDE1DF" transform="translate(316,218)"/>
<path d="M0 0 C2.27204073 2.77693867 4.38830047 5.57923598 6.375 8.5625 C8.80352496 12.02749822 11.35938983 13.88336618 15 16 C14.01 16.33 13.02 16.66 12 17 C9.3125 15.1875 9.3125 15.1875 7 13 C7 12.34 7 11.68 7 11 C4.525 10.01 4.525 10.01 2 9 C2.33 8.01 2.66 7.02 3 6 C2.01 5.67 1.02 5.34 0 5 C0 3.35 0 1.7 0 0 Z " fill="#FDD4D5" transform="translate(172,447)"/>
<path d="M0 0 C0.33 0.66 0.66 1.32 1 2 C-0.3125 4.625 -0.3125 4.625 -2 7 C-2.66 7 -3.32 7 -4 7 C-4 7.66 -4 8.32 -4 9 C-4.66 9 -5.32 9 -6 9 C-6 9.66 -6 10.32 -6 11 C-7.65 10.67 -9.3 10.34 -11 10 C-7.50640535 6.40365256 -3.88901869 3.16548033 0 0 Z " fill="#D61628" transform="translate(333,390)"/>
<path d="M0 0 C0.66 0.33 1.32 0.66 2 1 C0.56760415 2.79574993 -0.8711004 4.58646907 -2.3125 6.375 C-3.51326172 7.87160156 -3.51326172 7.87160156 -4.73828125 9.3984375 C-7 12 -7 12 -10 14 C-10.33 13.34 -10.66 12.68 -11 12 C-7.83741823 8.11454239 -4.59805717 4.49811114 -1 1 C-0.67 0.67 -0.34 0.34 0 0 Z " fill="#FCE8E6" transform="translate(378,340)"/>
<path d="M0 0 C0.68964844 0.39832031 1.37929687 0.79664063 2.08984375 1.20703125 C7.96426443 4.51894744 13.53186845 7.09137102 20 9 C20 9.33 20 9.66 20 10 C14.67911616 10.31925303 11.61892323 9.61069574 7 7 C5.63875 6.566875 5.63875 6.566875 4.25 6.125 C1.26583353 4.63291676 1.08121958 3.05690262 0 0 Z " fill="#FEE4DF" transform="translate(93,319)"/>
<path d="M0 0 C0.99 0.33 1.98 0.66 3 1 C-1.29 5.29 -5.58 9.58 -10 14 C-10.33 13.01 -10.66 12.02 -11 11 C-7.33333333 7.33333333 -3.66666667 3.66666667 0 0 Z " fill="#FCCECF" transform="translate(130,180)"/>
<path d="M0 0 C1.24546405 2.49092811 0.7767578 3.41080733 0 6 C-1.175625 6.12375 -1.175625 6.12375 -2.375 6.25 C-5.10658251 6.70366317 -5.10658251 6.70366317 -6.0625 8.8125 C-6.371875 9.534375 -6.68125 10.25625 -7 11 C-8.29470975 12.37086915 -9.62150897 13.71340837 -11 15 C-11 10.66825307 -8.34177417 8.77646347 -5.5 5.8125 C-4.97535156 5.25369141 -4.45070313 4.69488281 -3.91015625 4.11914062 C-2.61338387 2.73984636 -1.30753741 1.36909356 0 0 Z " fill="#CD192B" transform="translate(365,358)"/>
<path d="M0 0 C-4.42442592 3.71080883 -9.17403931 6.84577733 -14 10 C-13.67 8.68 -13.34 7.36 -13 6 C-11.35 5.67 -9.7 5.34 -8 5 C-8.33 4.01 -8.66 3.02 -9 2 C-5.5647952 -0.29013653 -4.014669 -0.17842973 0 0 Z " fill="#CB1626" transform="translate(326,421)"/>
<path d="M0 0 C1.134375 0.020625 2.26875 0.04125 3.4375 0.0625 C1.7875 2.0425 0.1375 4.0225 -1.5625 6.0625 C-2.8825 5.7325 -4.2025 5.4025 -5.5625 5.0625 C-4.43693182 0.07784091 -4.43693182 0.07784091 0 0 Z " fill="#D30D18" transform="translate(403.5625,349.9375)"/>
<path d="M0 0 C1.65 0 3.3 0 5 0 C5.33 0.99 5.66 1.98 6 3 C7.80252869 3.70194993 7.80252869 3.70194993 10 4 C10.9075 4.185625 11.815 4.37125 12.75 4.5625 C13.4925 4.706875 14.235 4.85125 15 5 C15 5.66 15 6.32 15 7 C13.359375 7.7109375 13.359375 7.7109375 11 8 C8.203125 6.6015625 8.203125 6.6015625 5.25 4.625 C4.26515625 3.97789062 3.2803125 3.33078125 2.265625 2.6640625 C1.51796875 2.11492187 0.7703125 1.56578125 0 1 C0 0.67 0 0.34 0 0 Z " fill="#D3162A" transform="translate(93,318)"/>
<path d="M0 0 C1.32 0.33 2.64 0.66 4 1 C2.88096454 2.81618856 1.75458716 4.62785526 0.625 6.4375 C-0.00148438 7.44683594 -0.62796875 8.45617187 -1.2734375 9.49609375 C-3 12 -3 12 -5 13 C-5 11.35 -5 9.7 -5 8 C-4.34 7.67 -3.68 7.34 -3 7 C-3 6.34 -3 5.68 -3 5 C-2.34 5 -1.68 5 -1 5 C-0.67 3.35 -0.34 1.7 0 0 Z " fill="#D6182B" transform="translate(431,312)"/>
<path d="M0 0 C-0.97370786 3.60271909 -1.6899154 4.79777091 -4.875 6.875 C-8.12615202 8.04541473 -8.87952402 7.98612444 -12 7 C-10.3790787 5.82767315 -8.75313167 4.6622923 -7.125 3.5 C-6.22007812 2.8503125 -5.31515625 2.200625 -4.3828125 1.53125 C-2 0 -2 0 0 0 Z " fill="#FDDDDE" transform="translate(251,259)"/>
<path d="M0 0 C4.67239145 2.13206212 8.59287819 4.02502456 12 8 C11.01 8.33 10.02 8.66 9 9 C6.5625 7.75 6.5625 7.75 4 6 C3.236875 5.505 2.47375 5.01 1.6875 4.5 C1.130625 4.005 0.57375 3.51 0 3 C0 2.01 0 1.02 0 0 Z " fill="#FBE5E0" transform="translate(388,204)"/>
<path d="M0 0 C2.62594784 0.1136515 5.25011547 0.24039054 7.875 0.375 C8.62136719 0.4059375 9.36773437 0.436875 10.13671875 0.46875 C15.7734375 0.7734375 15.7734375 0.7734375 18 3 C17.67 3.66 17.34 4.32 17 5 C8.585 3.02 8.585 3.02 0 1 C0 0.67 0 0.34 0 0 Z " fill="#F6D2CB" transform="translate(378,89)"/>
<path d="M0 0 C1.19935725 3.47651527 0.80128318 5.69868278 -0.25 9.1875 C-0.62898437 10.50814453 -0.62898437 10.50814453 -1.015625 11.85546875 C-1.34046875 12.56316406 -1.6653125 13.27085937 -2 14 C-2.99 14.33 -3.98 14.66 -5 15 C-4.25 8.25 -4.25 8.25 -2 6 C-1.83312552 3.41645782 -1.83312552 3.41645782 -2 1 C-1.34 0.67 -0.68 0.34 0 0 Z " fill="#FEE6E6" transform="translate(171,398)"/>
<path d="M0 0 C0.66 0.33 1.32 0.66 2 1 C-0.97 7.93 -0.97 7.93 -4 15 C-4.66 13.68 -5.32 12.36 -6 11 C-5.34 11 -4.68 11 -4 11 C-4 9.02 -4 7.04 -4 5 C-3.01 4.67 -2.02 4.34 -1 4 C-0.26676204 1.98491642 -0.26676204 1.98491642 0 0 Z " fill="#FDE3E0" transform="translate(404,296)"/>
<path d="M0 0 C-1.6009131 1.15037471 -3.20585225 2.29514816 -4.8125 3.4375 C-6.15248047 4.39462891 -6.15248047 4.39462891 -7.51953125 5.37109375 C-10 7 -10 7 -13 8 C-12.67 6.68 -12.34 5.36 -12 4 C-10.02 3.67 -8.04 3.34 -6 3 C-6 2.01 -6 1.02 -6 0 C-3.50907189 -1.24546405 -2.58919267 -0.7767578 0 0 Z " fill="#CC1929" transform="translate(285,236)"/>
<path d="M0 0 C1.32 0.33 2.64 0.66 4 1 C0.7 3.97 -2.6 6.94 -6 10 C-6.33 9.01 -6.66 8.02 -7 7 C-6.34 7 -5.68 7 -5 7 C-4.731875 6.21625 -4.46375 5.4325 -4.1875 4.625 C-3 2 -3 2 0 0 Z " fill="#C91928" transform="translate(371,382)"/>
<path d="M0 0 C0.33 0.99 0.66 1.98 1 3 C-0.1796875 4.82421875 -0.1796875 4.82421875 -1.875 6.6875 C-2.42929687 7.31011719 -2.98359375 7.93273437 -3.5546875 8.57421875 C-5 10 -5 10 -6 10 C-5.38909774 3.52443609 -5.38909774 3.52443609 -3.5625 1.0625 C-2 0 -2 0 0 0 Z " fill="#D70B21" transform="translate(425,324)"/>
<path d="M0 0 C0.33 0.66 0.66 1.32 1 2 C2.32 2.33 3.64 2.66 5 3 C2.03 5.31 -0.94 7.62 -4 10 C-4.66 9.34 -5.32 8.68 -6 8 C-5.34 8 -4.68 8 -4 8 C-4 7.34 -4 6.68 -4 6 C-3.01 6 -2.02 6 -1 6 C-1.020625 5.195625 -1.04125 4.39125 -1.0625 3.5625 C-1 1 -1 1 0 0 Z " fill="#CE111D" transform="translate(197,290)"/>
<path d="M0 0 C1.921875 0.671875 1.921875 0.671875 4 2 C4.828125 4.390625 4.828125 4.390625 5.25 7.25 C5.39695312 8.23097656 5.54390625 9.21195313 5.6953125 10.22265625 C6.01878577 13.17123956 6.16020662 16.03617745 6 19 C4.31639691 15.90975018 3.32945167 12.89969013 2.4375 9.5 C2.18871094 8.5615625 1.93992187 7.623125 1.68359375 6.65625 C1.11314796 4.43966066 0.55018357 2.22169364 0 0 Z " fill="#FCD7D3" transform="translate(462,156)"/>
<path d="M0 0 C0.33 0.66 0.66 1.32 1 2 C-1.54395217 5.81592825 -3.71755613 6.52329522 -8 8 C-9.32 7.67 -10.64 7.34 -12 7 C-8.04 4.69 -4.08 2.38 0 0 Z " fill="#CC1822" transform="translate(202,130)"/>
<path d="M0 0 C0.66 0 1.32 0 2 0 C1.25 5.75 1.25 5.75 -1 8 C-1.99 8 -2.98 8 -4 8 C-4.33 8.99 -4.66 9.98 -5 11 C-5.66 10.67 -6.32 10.34 -7 10 C-5.88321917 8.3278148 -4.75633648 6.66237197 -3.625 5 C-2.99851562 4.071875 -2.37203125 3.14375 -1.7265625 2.1875 C-1.15679687 1.465625 -0.58703125 0.74375 0 0 Z " fill="#D11528" transform="translate(391,325)"/>
<path d="M0 0 C0.66 0.33 1.32 0.66 2 1 C1.01 2.485 1.01 2.485 0 4 C-0.99 4 -1.98 4 -3 4 C-3.2475 4.639375 -3.495 5.27875 -3.75 5.9375 C-5 8 -5 8 -7.125 8.75 C-8.053125 8.87375 -8.053125 8.87375 -9 9 C-9 8.01 -9 7.02 -9 6 C-7.03125 4.39453125 -7.03125 4.39453125 -4.5 2.8125 C-3.6646875 2.28269531 -2.829375 1.75289062 -1.96875 1.20703125 C-0.99421875 0.60955078 -0.99421875 0.60955078 0 0 Z " fill="#FAE6DF" transform="translate(264,249)"/>
<path d="M0 0 C0 3 0 3 -1 6 C-1.99 6.495 -1.99 6.495 -3 7 C-3.268125 7.639375 -3.53625 8.27875 -3.8125 8.9375 C-5.39241741 11.68156708 -7.0515206 12.06890124 -10 13 C-7.02480663 8.30834891 -3.68606635 4.15296809 0 0 Z " fill="#CD1C2D" transform="translate(200,350)"/>
<path d="M0 0 C0 0.99 0 1.98 0 3 C-0.66 3 -1.32 3 -2 3 C-2 3.66 -2 4.32 -2 5 C-2.66 5 -3.32 5 -4 5 C-4 5.66 -4 6.32 -4 7 C-6.3125 8.6875 -6.3125 8.6875 -9 10 C-9.99 9.67 -10.98 9.34 -12 9 C-8.04 6.03 -4.08 3.06 0 0 Z " fill="#FDD4D3" transform="translate(203,292)"/>
<path d="M0 0 C0.33 0 0.66 0 1 0 C0.40984815 5.50808397 -0.56663769 10.64878069 -2 16 C-2.33 16 -2.66 16 -3 16 C-3 11.71 -3 7.42 -3 3 C-2.34 3 -1.68 3 -1 3 C-0.67 2.01 -0.34 1.02 0 0 Z " fill="#CE1022" transform="translate(466,233)"/>
<path d="M0 0 C0.6875 1.6875 0.6875 1.6875 1 4 C-0.1875 6.6875 -0.1875 6.6875 -2 9 C-4.1875 9.8125 -4.1875 9.8125 -6 10 C-5.58578031 5.16743695 -3.53586014 3.17320782 0 0 Z " fill="#CF0B1A" transform="translate(122,191)"/>
<path d="M0 0 C0 3 0 3 -1 5 C-2.33333333 5.66666667 -3.66666667 6.33333333 -5 7 C-5.7115625 7.7734375 -5.7115625 7.7734375 -6.4375 8.5625 C-8.49199044 10.45263121 -10.27994277 10.6324247 -13 11 C-9.0299782 6.78185183 -4.69159716 3.38772897 0 0 Z " fill="#FED5D6" transform="translate(355,399)"/>
<path d="M0 0 C0 0.66 0 1.32 0 2 C-1.32 2 -2.64 2 -4 2 C-4.33 2.99 -4.66 3.98 -5 5 C-6.77734375 6.203125 -6.77734375 6.203125 -8.9375 7.25 C-10.00291016 7.78367187 -10.00291016 7.78367187 -11.08984375 8.328125 C-11.72019531 8.54984375 -12.35054687 8.7715625 -13 9 C-13.66 8.67 -14.32 8.34 -15 8 C-13.37615858 6.85252535 -11.75088944 5.7070709 -10.125 4.5625 C-9.22007812 3.92441406 -8.31515625 3.28632813 -7.3828125 2.62890625 C-3.53717026 0 -3.53717026 0 0 0 Z " fill="#CC2231" transform="translate(222,335)"/>
<path d="M0 0 C0.33 0 0.66 0 1 0 C1.2475 1.134375 1.495 2.26875 1.75 3.4375 C2.767135 7.60255646 4.40133077 11.28043767 6.29296875 15.1171875 C6.52628906 15.73851562 6.75960937 16.35984375 7 17 C6.67 17.66 6.34 18.32 6 19 C0.7442217 13.21864387 -0.31357515 7.68259128 0 0 Z " fill="#FCD1CD" transform="translate(76,289)"/>
<path d="M0 0 C0.33 0 0.66 0 1 0 C0.88490339 1.41750563 0.75746342 2.83401169 0.625 4.25 C0.55539062 5.03890625 0.48578125 5.8278125 0.4140625 6.640625 C-0.02541008 9.14478952 -0.61427885 10.86957156 -2 13 C-2.99 13.33 -3.98 13.66 -5 14 C-4.54636829 12.41531323 -4.08688548 10.83230076 -3.625 9.25 C-3.36976563 8.36828125 -3.11453125 7.4865625 -2.8515625 6.578125 C-2.0790066 4.23919428 -1.16374324 2.16557438 0 0 Z " fill="#FCD9D3" transform="translate(460,260)"/>
<path d="M0 0 C0 1.32 0 2.64 0 4 C-0.70125 4.20625 -1.4025 4.4125 -2.125 4.625 C-5.95725116 6.45781577 -8.10452507 8.90251519 -11 12 C-11.66 11.67 -12.32 11.34 -13 11 C-11.21427748 9.16052663 -9.42197551 7.32842259 -7.625 5.5 C-7.11710938 4.97535156 -6.60921875 4.45070312 -6.0859375 3.91015625 C-2.2265625 0 -2.2265625 0 0 0 Z " fill="#C71121" transform="translate(136,179)"/>
<path d="M0 0 C0.99 0.33 1.98 0.66 3 1 C-0.3 3.64 -3.6 6.28 -7 9 C-7.33 7.68 -7.66 6.36 -8 5 C-4.93882432 2.37613513 -4.26826873 2 0 2 C0 1.34 0 0.68 0 0 Z " fill="#FDE0DB" transform="translate(160,155)"/>
<path d="M0 0 C0.33 0 0.66 0 1 0 C1.3690205 10.55808656 1.3690205 10.55808656 -1 15 C-1.33 15 -1.66 15 -2 15 C-2.05429959 13.25034642 -2.09292823 11.50020213 -2.125 9.75 C-2.15980469 8.28820312 -2.15980469 8.28820312 -2.1953125 6.796875 C-1.99862781 3.9803502 -1.44568916 2.39050964 0 0 Z " fill="#FAE4E1" transform="translate(210,436)"/>
<path d="M0 0 C1.32 0.33 2.64 0.66 4 1 C-1.445 4.96 -1.445 4.96 -7 9 C-7.33 7.68 -7.66 6.36 -8 5 C-7.01 5.33 -6.02 5.66 -5 6 C-4.67 4.68 -4.34 3.36 -4 2 C-2.68 2 -1.36 2 0 2 C0 1.34 0 0.68 0 0 Z " fill="#FCD8D7" transform="translate(280,429)"/>
<path d="M0 0 C1.32 0 2.64 0 4 0 C2.58192622 4.47238653 0.88695626 8.71146306 -1 13 C-2.07310858 9.72814447 -1.89263102 7.57052408 -1.0625 4.25 C-0.86785156 3.45078125 -0.67320312 2.6515625 -0.47265625 1.828125 C-0.31667969 1.22484375 -0.16070312 0.6215625 0 0 Z " fill="#CA1621" transform="translate(209,430)"/>
<path d="M0 0 C0.99 0.33 1.98 0.66 3 1 C1.52351062 2.33629746 0.0437367 3.66896671 -1.4375 5 C-2.26121094 5.7425 -3.08492188 6.485 -3.93359375 7.25 C-6 9 -6 9 -7 9 C-7 7.35 -7 5.7 -7 4 C-6.030625 3.525625 -5.06125 3.05125 -4.0625 2.5625 C-1.19522563 1.29806053 -1.19522563 1.29806053 0 0 Z " fill="#FBE3DC" transform="translate(325,394)"/>
<path d="M0 0 C-0.33 1.65 -0.66 3.3 -1 5 C-2.98 5.66 -4.96 6.32 -7 7 C-7 5.35 -7 3.7 -7 2 C-2.25 0 -2.25 0 0 0 Z " fill="#D80E1D" transform="translate(331,206)"/>
<path d="M0 0 C0 0.66 0 1.32 0 2 C0.66 2.33 1.32 2.66 2 3 C-1.12180401 3.96661363 -3.52083795 3.98988909 -6.75 3.5625 C-7.94882812 3.40974609 -7.94882812 3.40974609 -9.171875 3.25390625 C-9.77515625 3.17011719 -10.3784375 3.08632812 -11 3 C-7.63114177 -0.36885823 -4.54278442 -0.10095076 0 0 Z " fill="#D91026" transform="translate(266,102)"/>
<path d="M0 0 C2.05078125 0.03255208 4.1015625 0.06510417 6.15234375 0.09765625 C2.88062667 1.85205526 -0.45187667 3.0548301 -3.97265625 4.22265625 C-5.02710938 4.57585937 -6.0815625 4.9290625 -7.16796875 5.29296875 C-9.84765625 6.09765625 -9.84765625 6.09765625 -11.84765625 6.09765625 C-11.84765625 5.43765625 -11.84765625 4.77765625 -11.84765625 4.09765625 C-11.20957031 3.89269531 -10.57148438 3.68773438 -9.9140625 3.4765625 C-9.08777344 3.20714844 -8.26148438 2.93773438 -7.41015625 2.66015625 C-6.58644531 2.39332031 -5.76273437 2.12648438 -4.9140625 1.8515625 C-2.7681122 1.06863545 -2.23343112 0.11804604 0 0 Z " fill="#FEE0DB" transform="translate(271.84765625,95.90234375)"/>
<path d="M0 0 C0.66 0.33 1.32 0.66 2 1 C2 1.66 2 2.32 2 3 C1.34 3 0.68 3 0 3 C-0.33 4.65 -0.66 6.3 -1 8 C-1.66 8 -2.32 8 -3 8 C-3.66 7.34 -4.32 6.68 -5 6 C-5.66 5.67 -6.32 5.34 -7 5 C-4.69 3.35 -2.38 1.7 0 0 Z " fill="#D3111F" transform="translate(274,436)"/>
<path d="M0 0 C0.66 0.99 1.32 1.98 2 3 C1.01 4.485 1.01 4.485 0 6 C0.33 6.66 0.66 7.32 1 8 C0.01 8.66 -0.98 9.32 -2 10 C-2.66 10.99 -3.32 11.98 -4 13 C-5 10 -5 10 -4.00390625 7.51953125 C-3.52824219 6.62621094 -3.05257813 5.73289062 -2.5625 4.8125 C-2.08941406 3.91144531 -1.61632812 3.01039063 -1.12890625 2.08203125 C-0.75636719 1.39496094 -0.38382812 0.70789063 0 0 Z " fill="#FBDADA" transform="translate(446,292)"/>
<path d="M0 0 C1.65 0 3.3 0 5 0 C0.75259665 3.45101522 -3.61105071 6.73279209 -8 10 C-8.33 9.34 -8.66 8.68 -9 8 C-8.34 8 -7.68 8 -7 8 C-7 7.34 -7 6.68 -7 6 C-6.360625 5.71125 -5.72125 5.4225 -5.0625 5.125 C-2.84793921 4.17176549 -2.84793921 4.17176549 -2 2 C-1.34 2 -0.68 2 0 2 C0 1.34 0 0.68 0 0 Z " fill="#C81E29" transform="translate(221,275)"/>
<path d="M0 0 C-7.3697851 4.46015566 -7.3697851 4.46015566 -12 3.75 C-12.99 3.5025 -13.98 3.255 -15 3 C-12.04808566 1.03205711 -10.34507977 0.47996408 -6.9375 -0.1875 C-6.05964844 -0.36667969 -5.18179687 -0.54585937 -4.27734375 -0.73046875 C-2 -1 -2 -1 0 0 Z " fill="#FDE4DF" transform="translate(356,204)"/>
<path d="M0 0 C2.0625 0.4375 2.0625 0.4375 4 1 C2.04480616 2.17192047 0.0857461 3.3373929 -1.875 4.5 C-2.96554688 5.1496875 -4.05609375 5.799375 -5.1796875 6.46875 C-8 8 -8 8 -10 8 C-10 7.34 -10 6.68 -10 6 C-9.01 6 -8.02 6 -7 6 C-7 5.01 -7 4.02 -7 3 C-5.35 3 -3.7 3 -2 3 C-1.67 2.34 -1.34 1.68 -1 1 C-0.67 0.67 -0.34 0.34 0 0 Z " fill="#FCD8D5" transform="translate(208,124)"/>
<path d="M0 0 C6.39344262 0.49180328 6.39344262 0.49180328 9.3125 2.9375 C10.1478125 3.9584375 10.1478125 3.9584375 11 5 C11.66 5.66 12.32 6.32 13 7 C12.01 7.495 12.01 7.495 11 8 C8.3984375 6.6015625 8.3984375 6.6015625 5.375 4.625 C4.37210937 3.97789063 3.36921875 3.33078125 2.3359375 2.6640625 C1.56507813 2.11492187 0.79421875 1.56578125 0 1 C0 0.67 0 0.34 0 0 Z " fill="#FCDAD9" transform="translate(416,103)"/>
<path d="M0 0 C0.66 0.33 1.32 0.66 2 1 C0.8141763 4.37503669 -0.27573689 6.64722731 -3 9 C-3.66 7.35 -4.32 5.7 -5 4 C-3.35 2.68 -1.7 1.36 0 0 Z " fill="#DA0E1D" transform="translate(220,416)"/>
<path d="M0 0 C1 4 1 4 0 7 C-0.66 7 -1.32 7 -2 7 C-2.33 8.32 -2.66 9.64 -3 11 C-3.99 10.67 -4.98 10.34 -6 10 C-4.02 6.7 -2.04 3.4 0 0 Z " fill="#FDE1E1" transform="translate(440,304)"/>
<path d="M0 0 C-2.88087546 2.40072955 -5.56404834 4.47291037 -9 6 C-9.33 4.68 -9.66 3.36 -10 2 C-6.49223216 0.39644899 -3.85645121 -0.22036864 0 0 Z " fill="#D61327" transform="translate(303,224)"/>
<path d="M0 0 C0.33 1.32 0.66 2.64 1 4 C0.34 4 -0.32 4 -1 4 C-1.268125 4.969375 -1.53625 5.93875 -1.8125 6.9375 C-2.204375 7.948125 -2.59625 8.95875 -3 10 C-3.99 10.33 -4.98 10.66 -6 11 C-4.74194623 6.49197399 -3.09592835 3.5087188 0 0 Z " fill="#FDDBD6" transform="translate(217,425)"/>
<path d="M0 0 C0.99 0.33 1.98 0.66 3 1 C0.36 2.98 -2.28 4.96 -5 7 C-7 3 -7 3 -7 2 C-4.69 2 -2.38 2 0 2 C0 1.34 0 0.68 0 0 Z " fill="#D31425" transform="translate(332,414)"/>
<path d="M0 0 C1.32 0.33 2.64 0.66 4 1 C1.03 3.64 -1.94 6.28 -5 9 C-5.33 8.01 -5.66 7.02 -6 6 C-5.09972412 4.96468274 -4.17906965 3.94705835 -3.25 2.9375 C-2.48429687 2.08478516 -2.48429687 2.08478516 -1.703125 1.21484375 C-1.14109375 0.81394531 -0.5790625 0.41304688 0 0 Z " fill="#FDD6D4" transform="translate(336,384)"/>
<path d="M0 0 C0.33 0.66 0.66 1.32 1 2 C0.34 2 -0.32 2 -1 2 C-1.061875 2.61875 -1.12375 3.2375 -1.1875 3.875 C-2 6 -2 6 -4.5625 7.25 C-5.366875 7.4975 -6.17125 7.745 -7 8 C-7.66 7.34 -8.32 6.68 -9 6 C-6.03 4.02 -3.06 2.04 0 0 Z " fill="#FBD7D6" transform="translate(275,242)"/>
<path d="M0 0 C0.33 1.32 0.66 2.64 1 4 C0.34 4 -0.32 4 -1 4 C-1.66 5.32 -2.32 6.64 -3 8 C-3.66 8 -4.32 8 -5 8 C-5.99 9.485 -5.99 9.485 -7 11 C-7.66 10.67 -8.32 10.34 -9 10 C-6.03 6.7 -3.06 3.4 0 0 Z " fill="#D52A3D" transform="translate(115,198)"/>
<path d="M0 0 C0.99 0.33 1.98 0.66 3 1 C0.2180632 4.27286682 -3.27954067 5.96427697 -7 8 C-7 7.01 -7 6.02 -7 5 C-4.76671858 3.00180084 -2.68345751 1.34172876 0 0 Z " fill="#FDE2DC" transform="translate(188,135)"/>
<path d="M0 0 C0 0.99 0 1.98 0 3 C-0.99 3.33 -1.98 3.66 -3 4 C-3.33 5.65 -3.66 7.3 -4 9 C-5.65 8.67 -7.3 8.34 -9 8 C-6.14723863 5.06799526 -3.34920216 2.35684596 0 0 Z " fill="#CE1A27" transform="translate(299,417)"/>
<path d="M0 0 C0 0.66 0 1.32 0 2 C-1.57925975 2.39180108 -3.16368794 2.76280736 -4.75 3.125 C-5.63171875 3.33382813 -6.5134375 3.54265625 -7.421875 3.7578125 C-10.32875493 4.03088304 -11.56661348 3.53508028 -14 2 C-12.4176994 1.66179834 -10.83410625 1.32964061 -9.25 1 C-8.36828125 0.814375 -7.4865625 0.62875 -6.578125 0.4375 C-4 0 -4 0 0 0 Z " fill="#FCC8D0" transform="translate(148,327)"/>
<path d="M0 0 C0.92538169 3.70152678 1.08174162 4.63458162 0 8 C-1.65 8.33 -3.3 8.66 -5 9 C-3.35 6.03 -1.7 3.06 0 0 Z " fill="#FCE7E3" transform="translate(433,315)"/>
<path d="M0 0 C1.12894876 0.93274109 2.25300876 1.87140122 3.375 2.8125 C4.00148438 3.33457031 4.62796875 3.85664063 5.2734375 4.39453125 C7 6 7 6 9 9 C4.74822077 8.52758009 2.70030797 6.15035929 0 3 C0 2.01 0 1.02 0 0 Z " fill="#FBCDCA" transform="translate(84,310)"/>
<path d="M0 0 C3.96189783 4.23513217 5.43181728 8.547001 7 14 C6.01 13.67 5.02 13.34 4 13 C3.67 10.69 3.34 8.38 3 6 C2.34 6 1.68 6 1 6 C0.67 4.02 0.34 2.04 0 0 Z " fill="#CC2336" transform="translate(455,142)"/>
<path d="M0 0 C-1.75 4.875 -1.75 4.875 -4 6 C-4 5.34 -4 4.68 -4 4 C-5.98 4.33 -7.96 4.66 -10 5 C-3.63636364 0 -3.63636364 0 0 0 Z " fill="#D4192A" transform="translate(220,121)"/>
<path d="M0 0 C0.66 0.66 1.32 1.32 2 2 C0.02 4.31 -1.96 6.62 -4 9 C-4.33 7.68 -4.66 6.36 -5 5 C-4.34 5 -3.68 5 -3 5 C-2.5359375 4.0409375 -2.5359375 4.0409375 -2.0625 3.0625 C-1 1 -1 1 0 0 Z " fill="#FDD5D6" transform="translate(357,363)"/>
<path d="M0 0 C1.32 0.33 2.64 0.66 4 1 C1.69 3.31 -0.62 5.62 -3 8 C-3.33 6.68 -3.66 5.36 -4 4 C-3.34 4 -2.68 4 -2 4 C-2 3.34 -2 2.68 -2 2 C-1.34 2 -0.68 2 0 2 C0 1.34 0 0.68 0 0 Z " fill="#D32033" transform="translate(398,356)"/>
<path d="M0 0 C1.32 0.33 2.64 0.66 4 1 C1.69 3.97 -0.62 6.94 -3 10 C-3.33 9.34 -3.66 8.68 -4 8 C-3.22265625 6.0546875 -3.22265625 6.0546875 -2.0625 3.875 C-1.49208984 2.78832031 -1.49208984 2.78832031 -0.91015625 1.6796875 C-0.60980469 1.12539063 -0.30945313 0.57109375 0 0 Z " fill="#FEDCDC" transform="translate(384,330)"/>
<path d="M0 0 C-0.33 0.66 -0.66 1.32 -1 2 C-3.64860427 2.59355614 -6.29197322 2.74209269 -9 3 C-9 2.01 -9 1.02 -9 0 C-2.25 -1.125 -2.25 -1.125 0 0 Z " fill="#F4FEF4" transform="translate(157,327)"/>
<path d="M0 0 C1.98 0.99 1.98 0.99 4 2 C4 2.66 4 3.32 4 4 C4.66 4 5.32 4 6 4 C6 4.66 6 5.32 6 6 C6.99 6 7.98 6 9 6 C8.67 7.32 8.34 8.64 8 10 C6.84806377 8.90220176 5.70365063 7.79650554 4.5625 6.6875 C3.92441406 6.07261719 3.28632812 5.45773437 2.62890625 4.82421875 C1 3 1 3 0 0 Z " fill="#CB1121" transform="translate(83,307)"/>
<path d="M0 0 C0.99 0.33 1.98 0.66 3 1 C-0.96 4.465 -0.96 4.465 -5 8 C-5.33 7.01 -5.66 6.02 -6 5 C-1.60546875 0.99609375 -1.60546875 0.99609375 0 0 Z " fill="#FDDBD6" transform="translate(139,172)"/>
<path d="M0 0 C0.33 0.66 0.66 1.32 1 2 C0.34 2 -0.32 2 -1 2 C-1 2.99 -1 3.98 -1 5 C-0.34 5.33 0.32 5.66 1 6 C-0.36125 5.9690625 -0.36125 5.9690625 -1.75 5.9375 C-4.42672588 5.9889755 -6.46988052 6.2215017 -9 7 C-6.24479785 4.04070881 -3.53372712 1.96318174 0 0 Z " fill="#C71E28" transform="translate(185,140)"/>
<path d="M0 0 C1.32 0 2.64 0 4 0 C4 0.66 4 1.32 4 2 C6.475 2.99 6.475 2.99 9 4 C8.67 4.66 8.34 5.32 8 6 C4.08597051 4.73058503 2.20927127 3.48832306 0 0 Z " fill="#FDDAD6" transform="translate(209,452)"/>
<path d="M0 0 C0.66 0.66 1.32 1.32 2 2 C-3.75 7 -3.75 7 -6 7 C-6.33 7.66 -6.66 8.32 -7 9 C-7 6 -7 6 -5 3 C-3.36504293 1.94895617 -1.70116376 0.94011682 0 0 Z " fill="#FBE6E4" transform="translate(256,385)"/>
<path d="M0 0 C1.32 0.33 2.64 0.66 4 1 C3.19152271 2.16945792 2.37810888 3.33550461 1.5625 4.5 C1.11003906 5.1496875 0.65757812 5.799375 0.19140625 6.46875 C-0.20175781 6.9740625 -0.59492188 7.479375 -1 8 C-1.33 8 -1.66 8 -2 8 C-2.20086443 4.28400809 -2.1519437 3.22791555 0 0 Z " fill="#CE1522" transform="translate(258,375)"/>
<path d="M0 0 C2.64 0 5.28 0 8 0 C7.67 0.99 7.34 1.98 7 3 C4.4375 4.1875 4.4375 4.1875 2 5 C2 4.01 2 3.02 2 2 C1.34 2 0.68 2 0 2 C0 1.34 0 0.68 0 0 Z " fill="#D10A1A" transform="translate(162,314)"/>
<path d="M0 0 C0.33 0.99 0.66 1.98 1 3 C0.67 3.66 0.34 4.32 0 5 C-0.66 5 -1.32 5 -2 5 C-2.33 6.65 -2.66 8.3 -3 10 C-3.99 9.67 -4.98 9.34 -6 9 C-4.02 6.03 -2.04 3.06 0 0 Z " fill="#C91B2A" transform="translate(95,223)"/>
<path d="M0 0 C1.65 0 3.3 0 5 0 C-2.71428571 6 -2.71428571 6 -6 6 C-6 5.01 -6 4.02 -6 3 C-4.02 2.67 -2.04 2.34 0 2 C0 1.34 0 0.68 0 0 Z " fill="#CA1B28" transform="translate(309,218)"/>
<path d="M0 0 C0.66 0.33 1.32 0.66 2 1 C0.54744301 4.82946843 -1.42895561 6.12050295 -5 8 C-4.45773019 4.20411134 -2.79872437 2.52788007 0 0 Z " fill="#D7050D" transform="translate(219,413)"/>
<path d="M0 0 C0.66 0 1.32 0 2 0 C2.33 0.99 2.66 1.98 3 3 C-1.39453125 7.00390625 -1.39453125 7.00390625 -3 8 C-3.99 7.67 -4.98 7.34 -6 7 C-6 6.34 -6 5.68 -6 5 C-5.38125 4.9175 -4.7625 4.835 -4.125 4.75 C-1.81562433 4.18741541 -1.81562433 4.18741541 -0.75 1.9375 C-0.5025 1.298125 -0.255 0.65875 0 0 Z " fill="#CF1929" transform="translate(343,404)"/>
<path d="M0 0 C1.32 0.66 2.64 1.32 4 2 C2.35 3.65 0.7 5.3 -1 7 C-1.66 6.67 -2.32 6.34 -3 6 C-3 5.34 -3 4.68 -3 4 C-2.34 4 -1.68 4 -1 4 C-0.67 2.68 -0.34 1.36 0 0 Z " fill="#D81725" transform="translate(360,390)"/>
<path d="M0 0 C2.64752004 2.57784846 4.94432065 4.91648098 7 8 C5.35 7.67 3.7 7.34 2 7 C1.34 4.69 0.68 2.38 0 0 Z " fill="#CF1B2B" transform="translate(440,122)"/>
<path d="M0 0 C0.33 1.32 0.66 2.64 1 4 C-0.98 4.99 -0.98 4.99 -3 6 C-3.99 4.68 -4.98 3.36 -6 2 C-4.02 1.34 -2.04 0.68 0 0 Z " fill="#F9E8E4" transform="translate(450,124)"/>
<path d="M0 0 C-1 2 -1 2 -3.8125 3.25 C-7.38046792 4.08952186 -7.98529362 3.75258419 -11 2 C-9.54494642 1.47007308 -8.08581873 0.9513211 -6.625 0.4375 C-5.81289062 0.14746094 -5.00078125 -0.14257812 -4.1640625 -0.44140625 C-2 -1 -2 -1 0 0 Z " fill="#FAC8CC" transform="translate(261,461)"/>
<path d="M0 0 C1.48484412 0.39595843 2.9628831 0.81750706 4.4375 1.25 C5.26121094 1.48203125 6.08492187 1.7140625 6.93359375 1.953125 C9 3 9 3 9.78515625 5.109375 C9.85605469 5.73328125 9.92695313 6.3571875 10 7 C8.51719804 6.21516341 7.0388502 5.42190666 5.5625 4.625 C4.73878906 4.18414062 3.91507813 3.74328125 3.06640625 3.2890625 C1 2 1 2 0 0 Z " fill="#CF2A3B" transform="translate(180,458)"/>
<path d="M0 0 C0.66 0.33 1.32 0.66 2 1 C1.4375 2.9375 1.4375 2.9375 0 5 C-3.625 5.75 -3.625 5.75 -7 6 C-6.21625 5.38125 -5.4325 4.7625 -4.625 4.125 C-2.03162353 2.10141339 -2.03162353 2.10141339 0 0 Z " fill="#FDE0E2" transform="translate(314,429)"/>
<path d="M0 0 C2.97 0.495 2.97 0.495 6 1 C4.37660195 2.70884005 2.70680947 4.37446717 1 6 C0.34 6 -0.32 6 -1 6 C-1.33 5.01 -1.66 4.02 -2 3 C-1.34 2.01 -0.68 1.02 0 0 Z " fill="#FDE1E3" transform="translate(287,421)"/>
<path d="M0 0 C0.66 0.66 1.32 1.32 2 2 C1.195625 2.61875 0.39125 3.2375 -0.4375 3.875 C-3.03874519 5.74164041 -3.03874519 5.74164041 -4 8 C-5.32 7.67 -6.64 7.34 -8 7 C-5.36 4.69 -2.72 2.38 0 0 Z " fill="#CB1B2C" transform="translate(342,382)"/>
<path d="M0 0 C1 3 1 3 0.3125 5.125 C-1 7 -1 7 -3.125 7.75 C-4.053125 7.87375 -4.053125 7.87375 -5 8 C-5 8.66 -5 9.32 -5 10 C-5.66 9.67 -6.32 9.34 -7 9 C-4.69 6.03 -2.38 3.06 0 0 Z " fill="#D03040" transform="translate(373,348)"/>
<path d="M0 0 C0.66 0 1.32 0 2 0 C2 2.31 2 4.62 2 7 C1.01 7.33 0.02 7.66 -1 8 C-1.125 2.25 -1.125 2.25 0 0 Z " fill="#E70005" transform="translate(270,344)"/>
<path d="M0 0 C0.33 0.66 0.66 1.32 1 2 C0.67 2.66 0.34 3.32 0 4 C0.66 4.33 1.32 4.66 2 5 C1.34 5.66 0.68 6.32 0 7 C-2 7 -2 7 -5 6 C-3.35 4.02 -1.7 2.04 0 0 Z " fill="#F9D7D7" transform="translate(415,340)"/>
<path d="M0 0 C-1.28716647 1.00578589 -2.57988658 2.00446798 -3.875 3 C-4.95394531 3.8353125 -4.95394531 3.8353125 -6.0546875 4.6875 C-8 6 -8 6 -10 6 C-10 4 -10 4 -8.25 1.9375 C-5.41702333 -0.50200769 -3.48702916 -1.74351458 0 0 Z " fill="#C41C2A" transform="translate(247,261)"/>
<path d="M0 0 C2.375 0.25 2.375 0.25 5 1 C6.3125 3.0625 6.3125 3.0625 7 5 C6.34 5.66 5.68 6.32 5 7 C3.35 4.69 1.7 2.38 0 0 Z " fill="#FBD7D7" transform="translate(268,335)"/>
<path d="M0 0 C1 2 1 2 0.0625 5.125 C-0.288125 6.07375 -0.63875 7.0225 -1 8 C-2.32 7.67 -3.64 7.34 -5 7 C-3.35 4.69 -1.7 2.38 0 0 Z " fill="#FCD9D9" transform="translate(427,324)"/>
<path d="M0 0 C2.97 1.65 5.94 3.3 9 5 C8.34 5.66 7.68 6.32 7 7 C4.625 6.3125 4.625 6.3125 2 5 C0.6875 2.375 0.6875 2.375 0 0 Z " fill="#FCDCD8" transform="translate(93,319)"/>
<path d="M0 0 C1.89353366 1.89353366 3.4198632 3.84526801 5 6 C4.67 6.66 4.34 7.32 4 8 C1.36 6.02 -1.28 4.04 -4 2 C-2.68 1.34 -1.36 0.68 0 0 Z " fill="#FDE3E2" transform="translate(434,112)"/>
<path d="M0 0 C0 0.66 0 1.32 0 2 C-1.32 2 -2.64 2 -4 2 C-4 2.66 -4 3.32 -4 4 C-6.64 4 -9.28 4 -12 4 C-8.30376141 2.00971768 -4.25699221 0 0 0 Z " fill="#CA2A38" transform="translate(286,94)"/>
<path d="M0 0 C0.99 0.33 1.98 0.66 3 1 C0.36 2.98 -2.28 4.96 -5 7 C-5 6.01 -5 5.02 -5 4 C-4.34 4 -3.68 4 -3 4 C-3 3.34 -3 2.68 -3 2 C-2.01 1.34 -1.02 0.68 0 0 Z " fill="#C21F30" transform="translate(352,399)"/>
<path d="M0 0 C1.32 0.33 2.64 0.66 4 1 C2.35 2.98 0.7 4.96 -1 7 C-1.66 5.68 -2.32 4.36 -3 3 C-2.34 3 -1.68 3 -1 3 C-0.67 2.01 -0.34 1.02 0 0 Z " fill="#FDE0DB" transform="translate(197,349)"/>
<path d="M0 0 C1.27875 0.103125 2.5575 0.20625 3.875 0.3125 C4.95394531 0.39951172 4.95394531 0.39951172 6.0546875 0.48828125 C8 1 8 1 10 4 C6.7 3.67 3.4 3.34 0 3 C0 2.01 0 1.02 0 0 Z " fill="#CF0A19" transform="translate(260,334)"/>
<path d="M0 0 C1.32 0.33 2.64 0.66 4 1 C0.63576723 3.96052484 -2.69159287 4.92289822 -7 6 C-7 5.34 -7 4.68 -7 4 C-6.030625 3.71125 -5.06125 3.4225 -4.0625 3.125 C-0.89335797 2.35785318 -0.89335797 2.35785318 0 0 Z " fill="#D21B2D" transform="translate(156,320)"/>
<path d="M0 0 C0.99 0 1.98 0 3 0 C2.34 1.32 1.68 2.64 1 4 C0.34 4 -0.32 4 -1 4 C-1 4.66 -1 5.32 -1 6 C-2.32 6.33 -3.64 6.66 -5 7 C-4.34 5.68 -3.68 4.36 -3 3 C-2.01 3 -1.02 3 0 3 C0 2.01 0 1.02 0 0 Z " fill="#D80E23" transform="translate(397,317)"/>
<path d="M0 0 C0.99 0.33 1.98 0.66 3 1 C3.8125 2.875 3.8125 2.875 4 5 C3.01 6.485 3.01 6.485 2 8 C2 6.68 2 5.36 2 4 C1.01 3.67 0.02 3.34 -1 3 C-0.67 2.01 -0.34 1.02 0 0 Z " fill="#D60412" transform="translate(423,318)"/>
<path d="M0 0 C0.66 0 1.32 0 2 0 C1.40072174 3.35595828 0.15377564 5.37801226 -2 8 C-2.6875 6.25 -2.6875 6.25 -3 4 C-1.6875 1.75 -1.6875 1.75 0 0 Z " fill="#FCEEE0" transform="translate(91,224)"/>
<path d="M0 0 C6.57142857 4 6.57142857 4 8 8 C7.01 8 6.02 8 5 8 C0 2.65116279 0 2.65116279 0 0 Z " fill="#C31526" transform="translate(398,208)"/>
<path d="M0 0 C-1.44253657 3.36591866 -3.33264727 5.51047079 -6 8 C-5.62403791 5.21788056 -5.32681541 3.4120716 -3.5625 1.1875 C-2 0 -2 0 0 0 Z " fill="#FCD4D0" transform="translate(106,208)"/>
<path d="M0 0 C-0.66 1.65 -1.32 3.3 -2 5 C-2.66 5 -3.32 5 -4 5 C-4 5.66 -4 6.32 -4 7 C-4.66 7 -5.32 7 -6 7 C-6 6.01 -6 5.02 -6 4 C-5.34 4 -4.68 4 -4 4 C-4 3.01 -4 2.02 -4 1 C-2 0 -2 0 0 0 Z " fill="#D91020" transform="translate(190,138)"/>
<path d="M0 0 C0.66 0.33 1.32 0.66 2 1 C2 1.66 2 2.32 2 3 C4.97 3.495 4.97 3.495 8 4 C8 4.66 8 5.32 8 6 C6.53932801 5.54917531 5.08151968 5.08906463 3.625 4.625 C2.81289063 4.36976562 2.00078125 4.11453125 1.1640625 3.8515625 C-1 3 -1 3 -3 1 C-2.01 0.67 -1.02 0.34 0 0 Z " fill="#FBC2C7" transform="translate(404,95)"/>
<path d="M0 0 C0.33 0.66 0.66 1.32 1 2 C-2.375 2.125 -2.375 2.125 -6 2 C-6.66 1.34 -7.32 0.68 -8 0 C-5.09660535 -1.45169732 -3.09125158 -0.72348441 0 0 Z " fill="#FEF8F0" transform="translate(384,87)"/>
<path d="M0 0 C0 0.99 0 1.98 0 3 C-3.3 3 -6.6 3 -10 3 C-6.48579734 1.24289867 -3.89581553 0 0 0 Z " fill="#D02D3A" transform="translate(240,456)"/>
<path d="M0 0 C-6.625 3 -6.625 3 -10 3 C-10 2.34 -10 1.68 -10 1 C-3.71428571 -1.42857143 -3.71428571 -1.42857143 0 0 Z " fill="#CD2231" transform="translate(271,456)"/>
<path d="M0 0 C-2.31 1.32 -4.62 2.64 -7 4 C-7 2.68 -7 1.36 -7 0 C-3.86650268 -1.04449911 -3.01031744 -0.93423645 0 0 Z " fill="#D01123" transform="translate(305,436)"/>
<path d="M0 0 C0.33 0.99 0.66 1.98 1 3 C-0.8125 4.5625 -0.8125 4.5625 -3 6 C-3.99 5.67 -4.98 5.34 -6 5 C-4.02 3.35 -2.04 1.7 0 0 Z " fill="#FEDADA" transform="translate(242,398)"/>
<path d="M0 0 C0.66 0.33 1.32 0.66 2 1 C0.68 3.31 -0.64 5.62 -2 8 C-2.66 7.01 -3.32 6.02 -4 5 C-3.67 4.34 -3.34 3.68 -3 3 C-2.34 3 -1.68 3 -1 3 C-0.67 2.01 -0.34 1.02 0 0 Z " fill="#FED8DD" transform="translate(187,364)"/>
<path d="M0 0 C0.66 0.33 1.32 0.66 2 1 C0.8125 3 0.8125 3 -1 5 C-3.6875 5.25 -3.6875 5.25 -6 5 C-4.06745228 2.9754262 -2.36841312 1.57894208 0 0 Z " fill="#FEDCDC" transform="translate(298,227)"/>
<path d="M0 0 C-2.31 1.32 -4.62 2.64 -7 4 C-7 2.68 -7 1.36 -7 0 C-3.86650268 -1.04449911 -3.01031744 -0.93423645 0 0 Z " fill="#CA1827" transform="translate(293,231)"/>
<path d="M0 0 C0.66 0 1.32 0 2 0 C3.58706842 4.1077065 4.10191901 5.59232396 3 10 C1.68 7.03 0.36 4.06 -1 1 C-0.67 0.67 -0.34 0.34 0 0 Z " fill="#CD1628" transform="translate(406,217)"/>
<path d="M0 0 C0 0.66 0 1.32 0 2 C-4.15267176 5.11450382 -4.15267176 5.11450382 -7.3125 4.6875 C-7.869375 4.460625 -8.42625 4.23375 -9 4 C-2.25 0 -2.25 0 0 0 Z " fill="#FCCBCE" transform="translate(325,213)"/>
<path d="M0 0 C-2.35968744 2.09749995 -3.54616994 2.96905704 -6.75 3.1875 C-7.86375 3.0946875 -7.86375 3.0946875 -9 3 C-6.07868595 -0.19953443 -4.37453972 -1.45817991 0 0 Z " fill="#DB1023" transform="translate(163,160)"/>
<path d="M0 0 C-1.125 1.5 -1.125 1.5 -3 3 C-6.1875 3.1875 -6.1875 3.1875 -9 3 C-5.93488101 -0.06511899 -4.25015687 -1.41671896 0 0 Z " fill="#F9D2D0" transform="translate(285,450)"/>
<path d="M0 0 C0.99 0.33 1.98 0.66 3 1 C-0.465 3.97 -0.465 3.97 -4 7 C-4 6.01 -4 5.02 -4 4 C-3.34 4 -2.68 4 -2 4 C-1.34 2.68 -0.68 1.36 0 0 Z " fill="#FDDCD9" transform="translate(364,356)"/>
<path d="M0 0 C2 4 2 4 2 7 C0.02 7.99 0.02 7.99 -2 9 C-1.34 6.03 -0.68 3.06 0 0 Z " fill="#F9C9C8" transform="translate(273,353)"/>
<path d="M0 0 C0.66 0.33 1.32 0.66 2 1 C-0.97 3.475 -0.97 3.475 -4 6 C-4.33 4.68 -4.66 3.36 -5 2 C-2.625 0.9375 -2.625 0.9375 0 0 Z " fill="#FDD9D6" transform="translate(205,343)"/>
<path d="M0 0 C0.99 0.33 1.98 0.66 3 1 C1.8125 2.5 1.8125 2.5 0 4 C-2.6875 4.1875 -2.6875 4.1875 -5 4 C-3.36587557 2.29159719 -2.13093906 1.06546953 0 0 Z " fill="#FCD2D5" transform="translate(169,316)"/>
<path d="M0 0 C0 3.52032428 -0.70351351 4.4385343 -3 7 C-3.66 7 -4.32 7 -5 7 C-4.60196439 4.11424181 -4.20990931 3.17810487 -1.9375 1.25 C-1.298125 0.8375 -0.65875 0.425 0 0 Z " fill="#DA0409" transform="translate(431,309)"/>
<path d="M0 0 C0.99 0 1.98 0 3 0 C2.1875 2.9375 2.1875 2.9375 1 6 C0.01 6.33 -0.98 6.66 -2 7 C-2 6.01 -2 5.02 -2 4 C-1.34 4 -0.68 4 0 4 C0 2.68 0 1.36 0 0 Z " fill="#D61527" transform="translate(455,266)"/>
<path d="M0 0 C1.2065625 0.0309375 1.2065625 0.0309375 2.4375 0.0625 C2.1075 1.7125 1.7775 3.3625 1.4375 5.0625 C0.4475 4.7325 -0.5425 4.4025 -1.5625 4.0625 C-1.5625 3.4025 -1.5625 2.7425 -1.5625 2.0625 C-2.2225 1.7325 -2.8825 1.4025 -3.5625 1.0625 C-2.5625 0.0625 -2.5625 0.0625 0 0 Z " fill="#D9040B" transform="translate(284.5625,229.9375)"/>
<path d="M0 0 C4.42857143 5.14285714 4.42857143 5.14285714 5 9 C4.01 8.67 3.02 8.34 2 8 C2 6.68 2 5.36 2 4 C1.34 4 0.68 4 0 4 C0 2.68 0 1.36 0 0 Z " fill="#FBC6C6" transform="translate(404,217)"/>
<path d="M0 0 C0.99 0.33 1.98 0.66 3 1 C0.03 3.475 0.03 3.475 -3 6 C-3 3 -3 3 -1.5 1.3125 C-0.7575 0.6628125 -0.7575 0.6628125 0 0 Z " fill="#FED8D7" transform="translate(130,180)"/>
<path d="M0 0 C1.65 0.99 3.3 1.98 5 3 C4.67 4.32 4.34 5.64 4 7 C2 5.1875 2 5.1875 0 3 C0 2.01 0 1.02 0 0 Z " fill="#FAF5ED" transform="translate(439,118)"/>
</svg>
